<mxfile host="app.diagrams.net" agent="Mozilla/5.0 (X11; Linux x86_64) AppleWebKit/537.36 (KHTML, like Gecko) Chrome/133.0.0.0 Safari/537.36" version="26.1.1">
  <diagram name="Page-1" id="YomefT9Akjb_c4TjpfdC">
    <mxGraphModel dx="1368" dy="794" grid="1" gridSize="10" guides="1" tooltips="1" connect="1" arrows="1" fold="1" page="1" pageScale="1" pageWidth="850" pageHeight="1100" math="0" shadow="0">
      <root>
        <mxCell id="0" />
        <mxCell id="1" parent="0" />
        <mxCell id="5oMmjMAf5zsthHY-WXvj-3" style="edgeStyle=orthogonalEdgeStyle;rounded=0;orthogonalLoop=1;jettySize=auto;html=1;entryX=0;entryY=0.5;entryDx=0;entryDy=0;" edge="1" parent="1" source="5oMmjMAf5zsthHY-WXvj-1" target="5oMmjMAf5zsthHY-WXvj-2">
          <mxGeometry relative="1" as="geometry">
            <mxPoint x="170" y="260" as="targetPoint" />
          </mxGeometry>
        </mxCell>
        <mxCell id="5oMmjMAf5zsthHY-WXvj-1" value="Ecom Data" style="shape=cylinder3;whiteSpace=wrap;html=1;boundedLbl=1;backgroundOutline=1;size=15;" vertex="1" parent="1">
          <mxGeometry x="50" y="220" width="60" height="80" as="geometry" />
        </mxCell>
        <mxCell id="5oMmjMAf5zsthHY-WXvj-8" style="edgeStyle=orthogonalEdgeStyle;rounded=0;orthogonalLoop=1;jettySize=auto;html=1;entryX=0;entryY=0.5;entryDx=0;entryDy=0;" edge="1" parent="1" source="5oMmjMAf5zsthHY-WXvj-2" target="5oMmjMAf5zsthHY-WXvj-7">
          <mxGeometry relative="1" as="geometry" />
        </mxCell>
        <mxCell id="5oMmjMAf5zsthHY-WXvj-2" value="Kafka Producer" style="shape=image;verticalLabelPosition=bottom;verticalAlign=top;imageAspect=0;aspect=fixed;image=data:image/svg+xml,PHN2ZyB4bWxucz0iaHR0cDovL3d3dy53My5vcmcvMjAwMC9zdmciIGZpbGw9Im5vbmUiIHZpZXdCb3g9IjAgMCA2MCA2MCIgaGVpZ2h0PSI2MCIgd2lkdGg9IjYwIj4mI3hhOzxwYXRoIGZpbGw9InVybCgjcGFpbnQwX2xpbmVhcl83NDNfMjY1NikiIGQ9Ik0zMC43MDYyIDEzLjM5NjVDMzIuNTI2NCAxMy4zOTY1IDM0LjAwMTkgMTEuOTYxMSAzNC4wMDE5IDEwLjE5MDVDMzQuMDAxOSA4LjQxOTgxIDMyLjUyNjQgNi45ODQ0MSAzMC43MDYyIDYuOTg0NDFDMjguODg2MSA2Ljk4NDQxIDI3LjQxMDUgOC40MTk4MSAyNy40MTA1IDEwLjE5MDVDMjcuNDEwNSAxMS45NjExIDI4Ljg4NjEgMTMuMzk2NSAzMC43MDYyIDEzLjM5NjVaTTM3LjA2OTcgMTAuMTkwNUMzNy4wNjk3IDEzLjA5ODcgMzUuMDA4MiAxNS41Mzg1IDMyLjIyOTMgMTYuMjAyNUMzMi4yMzY1IDE2LjI2MSAzMi4yNDAyIDE2LjMyMDYgMzIuMjQwMiAxNi4zODFWMjEuMjAzNUMzNC42NDEyIDIxLjU5NjggMzYuNzI1NSAyMi44OTc5IDM4LjEwNzEgMjQuNzMxNEw0My43Nzg5IDIxLjczMzRDNDMuNTI4OCAyMC43NDk3IDQzLjUyNCAxOS42OTI0IDQzLjgxMzcgMTguNjQ0NUM0NC43MjY2IDE1LjM0MyA0OC4yMTc5IDEzLjM4NjUgNTEuNjExNyAxNC4yNzQ1QzU1LjAwNTYgMTUuMTYyNiA1Ny4wMTY4IDE4LjU1ODkgNTYuMTAzOSAyMS44NjA1QzU1LjE5MSAyNS4xNjIgNTEuNjk5NyAyNy4xMTg2IDQ4LjMwNTkgMjYuMjMwNUM0Ny4wNjMxIDI1LjkwNTMgNDYuMDA1OCAyNS4yNDM4IDQ1LjIwOTUgMjQuMzczOEwzOS40ODE0IDI3LjQwMTVDMzkuNzM4MyAyOC4yMjM3IDM5Ljg3NjUgMjkuMDk2MiAzOS44NzY1IDMwLjAwMDFDMzkuODc2NSAzMC45NjM3IDM5LjcxOTQgMzEuODkxNyAzOS40Mjg4IDMyLjc2MTFMNDUuMDcxMSAzNi4xNDYyQzQ1Ljg3NjcgMzUuMTkzOSA0Ni45ODE5IDM0LjQ2NTggNDguMjk3NCAzNC4xMTQ2QzUxLjY4NjUgMzMuMjA5NyA1NS4xODggMzUuMTQ4OSA1Ni4xMTgyIDM4LjQ0NTlDNTcuMDQ4MyA0MS43NDI5IDU1LjA1NDkgNDUuMTQ5MiA1MS42NjU3IDQ2LjA1NEM0OC4yNzY2IDQ2Ljk1ODkgNDQuNzc1MSA0NS4wMTk3IDQzLjg0NSA0MS43MjI3QzQzLjU3MTggNDAuNzU0NSA0My41NTA4IDM5Ljc3NjggNDMuNzQzMiAzOC44NTU4TDM3Ljk5ODggMzUuNDA5NUMzNi42MTc4IDM3LjE2ODcgMzQuNTc5MyAzOC40MTM0IDMyLjI0MDIgMzguNzk2NlY0My42MTlDMzIuMjQwMiA0My42Nzk0IDMyLjIzNjUgNDMuNzM5IDMyLjIyOTMgNDMuNzk3NUMzNS4wMDgzIDQ0LjQ2MTUgMzcuMDY5NyA0Ni45MDEzIDM3LjA2OTcgNDkuODA5NUMzNy4wNjk3IDUzLjIyODQgMzQuMjIwNyA1NiAzMC43MDYyIDU2QzI3LjE5MTcgNTYgMjQuMzQyNyA1My4yMjg0IDI0LjM0MjcgNDkuODA5NUMyNC4zNDI3IDQ2LjkwMTMgMjYuNDA0MiA0NC40NjE1IDI5LjE4MzIgNDMuNzk3NUMyOS4xNzYgNDMuNzM5IDI5LjE3MjMgNDMuNjc5NCAyOS4xNzIzIDQzLjYxOVYzOC43OTY2QzI0LjgzODEgMzguMDg2NCAyMS41MzYzIDM0LjQxODQgMjEuNTM2MyAzMC4wMDAxQzIxLjUzNjMgMjUuNTgxOCAyNC44MzgxIDIxLjkxMzcgMjkuMTcyMyAyMS4yMDM2VjE2LjM4MUMyOS4xNzIzIDE2LjMyMDYgMjkuMTc2IDE2LjI2MSAyOS4xODMyIDE2LjIwMjVDMjYuNDA0MiAxNS41Mzg1IDI0LjM0MjcgMTMuMDk4NyAyNC4zNDI3IDEwLjE5MDVDMjQuMzQyNyA2Ljc3MTU3IDI3LjE5MTcgNCAzMC43MDYyIDRDMzQuMjIwNyA0IDM3LjA2OTcgNi43NzE1NyAzNy4wNjk3IDEwLjE5MDVaTTM2LjgwODcgMzAuMDAwMUMzNi44MDg3IDMzLjI3NDQgMzQuMDgzNyAzNS45Mjk1IDMwLjcxOTUgMzUuOTM2NEwzMC43MDYyIDM1LjkzNjRMMzAuNjkzIDM1LjkzNjRDMjcuMzI5IDM1LjkyOTQgMjQuNjA0MSAzMy4yNzQzIDI0LjYwNDEgMzAuMDAwMUMyNC42MDQxIDI2LjcyMTUgMjcuMzM2MiAyNC4wNjM3IDMwLjcwNjQgMjQuMDYzN0MzNC4wNzY2IDI0LjA2MzcgMzYuODA4NyAyNi43MjE1IDM2LjgwODcgMzAuMDAwMVpNMzQuMDAxOSA0OS44MDk1QzM0LjAwMTkgNTEuNTgwMiAzMi41MjY0IDUzLjAxNTYgMzAuNzA2MiA1My4wMTU2QzI4Ljg4NjEgNTMuMDE1NiAyNy40MTA1IDUxLjU4MDIgMjcuNDEwNSA0OS44MDk1QzI3LjQxMDUgNDguMDM4OSAyOC44ODYxIDQ2LjYwMzUgMzAuNzA2MiA0Ni42MDM1QzMyLjUyNjQgNDYuNjAzNSAzNC4wMDE5IDQ4LjAzODkgMzQuMDAxOSA0OS44MDk1Wk01My4xNDE0IDIxLjA4NTNDNTMuNjE0MSAxOS4zNzU0IDUyLjU3MjUgMTcuNjE2NCA1MC44MTQ5IDE3LjE1NjVDNDkuMDU3MiAxNi42OTY2IDQ3LjI0OSAxNy43MDk5IDQ2Ljc3NjIgMTkuNDE5N0M0Ni4zMDM1IDIxLjEyOTYgNDcuMzQ1MSAyMi44ODg2IDQ5LjEwMjcgMjMuMzQ4NUM1MC44NjA0IDIzLjgwODUgNTIuNjY4NiAyMi43OTUyIDUzLjE0MTQgMjEuMDg1M1pNNTMuMTU5NyAzOS4yMzU4QzUzLjY0MTQgNDAuOTQzMyA1Mi42MDkxIDQyLjcwNzQgNTAuODUzOCA0My4xNzYxQzQ5LjA5ODYgNDMuNjQ0NyA0Ny4yODUxIDQyLjY0MDQgNDYuODAzNCA0MC45MzI4QzQ2LjMyMTcgMzkuMjI1MyA0Ny4zNTQxIDM3LjQ2MTIgNDkuMTA5MyAzNi45OTI2QzUwLjg2NDYgMzYuNTIzOSA1Mi42NzggMzcuNTI4MyA1My4xNTk3IDM5LjIzNThaTTE4Ljg0NjYgMTcuNDMwNUMxMi40NTY4IDE3LjQzMDUgNy4wODY2MiAyMi44OTE3IDcuMDg2NjMgMjkuODY1NUM3LjA4NjYzIDM2LjgzOTIgMTIuNDU2OCA0Mi4zMDA1IDE4Ljg0NjYgNDIuMzAwNVY0NS4yODQ5QzEwLjU1MjQgNDUuMjg0OSA0LjAxODggMzguMjc1NCA0LjAxODggMjkuODY1NUM0LjAxODggMjEuNDU1NiAxMC41NTI0IDE0LjQ0NjEgMTguODQ2NiAxNC40NDYxVjE3LjQzMDVaIiBjbGlwLXJ1bGU9ImV2ZW5vZGQiIGZpbGwtcnVsZT0iZXZlbm9kZCIvPiYjeGE7PGRlZnM+JiN4YTs8bGluZWFyR3JhZGllbnQgZ3JhZGllbnRVbml0cz0idXNlclNwYWNlT25Vc2UiIHkyPSI1MC4zNjY2IiB4Mj0iMzguNDQ0OCIgeTE9IjI4LjgyNTciIHgxPSIyLjExNyIgaWQ9InBhaW50MF9saW5lYXJfNzQzXzI2NTYiPiYjeGE7PHN0b3Agc3RvcC1jb2xvcj0iIzAwRUREMSIvPiYjeGE7PHN0b3Agc3RvcC1jb2xvcj0iIzQ1QzdGRiIgb2Zmc2V0PSIwLjg0NjM1NCIvPiYjeGE7PC9saW5lYXJHcmFkaWVudD4mI3hhOzwvZGVmcz4mI3hhOzwvc3ZnPg==;" vertex="1" parent="1">
          <mxGeometry x="190" y="210" width="100" height="100" as="geometry" />
        </mxCell>
        <mxCell id="5oMmjMAf5zsthHY-WXvj-6" value="" style="group" vertex="1" connectable="0" parent="1">
          <mxGeometry x="450" y="170" width="360" height="160" as="geometry" />
        </mxCell>
        <mxCell id="5oMmjMAf5zsthHY-WXvj-5" value="" style="rounded=0;whiteSpace=wrap;html=1;fillColor=none;" vertex="1" parent="5oMmjMAf5zsthHY-WXvj-6">
          <mxGeometry width="360" height="160" as="geometry" />
        </mxCell>
        <mxCell id="5oMmjMAf5zsthHY-WXvj-4" value="" style="shape=image;verticalLabelPosition=bottom;labelBackgroundColor=default;verticalAlign=top;aspect=fixed;imageAspect=0;image=data:image/webp,UklGRgomAABXRUJQVlA4WAoAAAAYAAAAWwMApQAAQUxQSG4XAAAB8Mf//+qm/f89TlJHS9HhxYa7y5CyoRNocdtgwV2KwxiMbsh8MPfByhQ2YDBBi/WFuw9WXKrUktz/yON5es7zmZNXL+lLImIC6P/+/7///zfJMq0Hznnjy80HEo9cOpOYuPP7D5aN7V47uABItaFv/HEPxuaeWj+7Y1jBjfIjN9yE2bkH454IKIBRc8ERyJq8/rmQAhUlphyB3Kmfty8w0eqrTCh4ZmrRAhC2PnthqPP60d/jv3j//fc/iN+492yqEUDKiooFHLTok8hz9qEPJ3WpFkh5jGjab9mmf/ICZL9bviDDk0eQx6xtse1CyMRKg9Zc0QdkrgovqFBzE/Q//LR3IZKw9sxDuoC7Y+wFEYKXZENv7o+9g0nayIVX9QBHmhY8aHsaeu8ufIzktnXbqge5K8IKFgQsdkLn7cVFScGGXzhFwJkmBQlqHoLOK2ODSdF63zhFyJ6pFRh4LgXilCmBpHCdP0XAxmIFA+zL3RCve4wUH3RDhPP1CgIU+gniC91I/UJxuQKk9fL/K3sIQverweQVm54XINfh71flEoR3e5C3LLpeACzw76t5DcIDVciLDssQ4DXNj6/WTfDu5QHkVRudF+AN/71KV8E7R5G3Dd8rwGp/vfKXwWf0Iu9baIsAc/zzihwB/7AdeeOAjwXu4f54AVvAJ9Uj76yt5pDdyQ/vLfD3apPXfofDg2p+d4PAZ7Qh721bz+F4IT+7hhlcTjfy5kHbOXzlXxdyAqx7BMk8Li4uUjIKS+Awwq9uDfi5JPVxoJtsVPofLq26H11PN7fFJtcVIEY6ap/LYL/db67oNbA3y5K5th7fh+u7C7wgH83lMM1vbg1YV2cyeRuwQF8WMFkB21Yuo5qfXGsXN4/MXgTcK6wnCMB8Bah0EoPN/nHaAbD7baZVcwOT9UQAiFOBenDo4Rc3HKyzMZm/H7gepKMygHeVoB+4C0F+cCHXubdIwokARuqoB+BLNSqlMxjvnbSKHXr3czgGxbSPDPIOATW69BnqGNY3qlagEs86PEvKUsXB9jenj0PmnsaNcrDPyFfJwdeWp7KDf9yU8g6pyxvSxOHZWBabgy9mWGuHkiHGTQF7q7gMpXOBc3ZRawA/qkGzuRthXufxUZ+fyIRO17n10xtpSkWO/PJsDsS559eNrindPnhutUnyHNjz5vwLMm8zLhvsXvl6gnfI0xv8KFO6QuquhiyA5+3ykgSBr2HY61AywrDQJG4QSbkZQIzoSQC/KxJ0isE079Lk1Ssw9ObatpoileaehpEXFlVTAYvyw7An0AeZAnafZlRAHgYDOKwJngWwTxHqzt0K8R7Bzx+HiefHhCjQZpMLRru3dVLA9WR+GFb5HvZLXE8yOOLwRH2F0wF0EwwAcFgVOsjgRW8RNO0mTL41PkCy5n/B3IR20uFOxfwwdx+fYwDYo5pBEUeAZZoe+hrA74LhAE4p8xx31uYdnjkPCU+0l6nEGhfMdn9WWjYkBOaDIbmGr5HAxZDBpc4B+DhATzcAaMQ5AFxURjvBoJs3KBEPOV2vBksTdRMy3u8tG97ID8PRUN+iPtgzNqOo6g0AG8N02K8D+IKbCOC6MjSI+84LdP4Heby78+NFsxyOyQvXbr2hD9hXVg77yy7ov/nHmoXTHdMWvLP9uj64VwdJhhjvcjlOypE+1po4KWuYhE+8QO84g5O5DXEGhxn0JjecjG+YDGBvCREtA5D9GDMDwF117BeYnDLKjcmF3qyfRz1OussN/ipVD/6uJ0PIj9Dr3OyoQXqrvvBzjg5gexHJUmt6ld9IbR+lCimrCyPVM/wy15NkDrrP3AsxgTpmAThVUVTdDWA5Mw9Aqjo0g8EMxbSV0HtuTDgZGDriqA7cqW9e8Z3QeWdeOcp7qRk3dCCxtFw4HpYf9qiRD9EL7CoyNdoF4FpdAe0EcL+QxxIA2QqVzGIOqaW9C53n+9jIYC3mogh3appVaD/EabMKkbEhkx+KcDJcLnyeH4YLxXyHz7k65tB4ALjfXDAcACZ4vAoAmjq0gUGkUqsgzpwVRCaGrnQJcDbcnMCtEP9ckYwvu16EPaFy4cX8MPyg+QpBycxRMvtlAEh9giuUCuCCjYje9AhRqC8Xq9JUiE/UI5N7PBBgs2bKxxBmTyZzR2UK8J0mV2aT/DDM8BU6g51jmvYhADzqwdCHAPAcEa31KKZQSAqzU6EnckU/hpLpdZMEmGDGMAgftiezm90RYJJcuFQ8Pyy3vY+wgqtpGtk3AEB2DNPGYxcRfewRoRCtY3KLKVPmFoTv2knCGrcFGdWMezxdcLsRmf/4NUF2MzmOCPCzlo91JpNDUhnf4CRzgSQM2gwAzuc96AwANCX63KO0SkMZ9FVmPYQfaSRli0wO3xum7Qaf1oRkrH2fw9EAKUb+IMCsfKzvRwnwh90XKOlm3pKBQncAgHuSx0yPz4m+9iinUikX87YqPSH8yU6SjhWgvVEjwDu7kZztszlMlqPYeUFuh3ws+kSAZb7A02B7GVFifmReqOhBeM4notLZALLK0rceFVSiw8xhRQIvCy4UI2l/E2wxqMgdwUsk63RBSkkpqEEGhxtl87FCjwhcPX2AVxl3CSOmw50wvpQ+ijjugTgi2gAAi+l7j0pKvck4i6kxCnxuY5K3RjbnbmDMTPAJAdJo2zgslYOGCfBXQP4VVXvI4X4V6/uTOU0GaucAwLl9WGE9VPqMB9bY6CmP2yEbPaoo1Y9BRyUCLwteI5nXcnjHkJAkztmQ5K2WySUXl4PWCLA8H4t6uTkcCbW8e8zHRgSMvQw27YtudhFVvuaBtTbbFQAYvtmjulIVuUlK9AOfVFiqqi7ubqARI8G/RzIv5zBdkuCDAnfvfCxaLsB7VlcB7CQjiAKGnPQAkLS8poBq3vLAZ/b5Hv/a5lFLKbrHfKjEFsFUknszh25G7OKyK0gVkc4dk4Qq3+PwoGo+lv0PAQZZ3FNcR2OItGf2MwB2v1CYoXp3PbCuSi4APPSoo9YOZp8KFZzc3UKSDRSsNqCqm/uU5H6DQwNJqJuLQ2JI/hWV+UeQVsfaxnIljSKizts5IO2T9hoRUeMHHvhhqwdbT613mNsqTAL/BklePIc7asAs8C0le1ywVBZaLMDafCxqm8PhdGFLe41JJVObf+9iAJyf8xgRtUzxQLKOhmpNY1BIgZ8FTWQzcyt3UZOMErkEaWxbBRiSj0WTBfjG0uKZY+YQVXs7nQNyf+plp3bpHnqbqPUcV1e+gGTuCnnNwDRuOck+m8stIgtFXBWk183Hom8FGG9lu5mNZhGFz07iAFxfUrnzozw0V6sx11W+RuA/8R4twD8lXSsOT0pDzbM4nCmSj1XktCCrhYWdZT40jyho6BEB4Nr6kUtfK7XKcwPkGyAY7j2GcbmFpQtM4ybJQ2MEWJ+PRXXSOFyNsK67zHIZiKhdvJPLexu1Qrjx8i0WNPUey7jzJP8h7h2J6FMBJuZjUX8BttstK5eZKQlRrXfTjGmvFqUzC+T7UlDUe3zL/arA19xvMoUdF2S3ym8YHGV6dYnoLQHmW1UA2PHSEBWfccWIjordYZbK9wv3gLzndu5dBZZxiTJRzRQOf5fMZ5DwFZmCEgTOLhYVxr0oEZG9z868dVHsOrNCvp3cNS+yn4tTIJY7JxX1cXPYYlPoVrzp8/7Nowq3Odwub03FueGm2MPDq0TWbdoiKqpPTMwIh8MxJXZ9Tl7Wxy2LjY2NHedwOIbHxMRER0VFdWjaKDIyPNwmxSXmLfkOc6e8yEluvgLjuRty0QoBFiok4dZ/96iLk8OeQCsbYcC4Nz+K/23PkUv3MqF62oMrx/dujf9w9UszHaVNeVO+RO6M91mgTpJkATsFrq75WDRXgFWWFMY5DNgHr9zBoH+YFfLt4K57kf1cnAKzubOSUZkkDvcr52NpPwjc0VYUwI23tjvMUvk2cileZBv3ngKvcIdkow65HPYG5l9R+CUOydUtiHKYWQaMe/Oj+N/2HLl0L1O5lAeXj+3ZGv/B6pdmOEoblMHMl+9TDhHeYz23RYF13FbpaLoAr+cj/Bpv+iDZqHEmh6OhFnSbedUAvfbw8MqRdZo2i4p6JiZmmMPhmBIbGxv7chx/My87xjmGxsQ8GxXVoWnDyKrh4RpJGAp2rHxzBa29xxLuogKJ3Fvyad8L3NE+VVfBeHn6CIZJUYWUNY5GCvCJBZ1iPjbF7IN5wbVZ4SR7Ra6ffH0Eo73HEM5ZTLqgDG6CfFT0HIeUmmocizG9vXdqK5gpzzBBX4uijwV4wXp2MZsUSsgTkP5eLcmaclHy1Ras8x5NOfSUri34LgpQvXQOx8KU+I3UVqeRYKk8kwTdrCr0sOBRQ8tZzxxXaJcBgPvXrppMfbna8mm3uVs2rxGQwq2UbgGXXUgFGiLAZz5URcFX8qwWNLMqinzA4UIxq4ljUhX6U5+bA3Di+WB5ZjDuMPloHYeO0lWOZKvkjX7hrmqyHed2kRL0ngCjfCdbFrdfno2CCMui3m4OP2gWM5pBaXW26dux8JIAuDGnhCxrmJuk4CjBx7KVc4HdZ8BUDu0lqw9+kSLBBwSZjX0mOsdlBklzk0sm66JlAky3mK5cF3U268NH9i7rsjgg/a1IOXYze1SIyOLSIiQbDX6pARVc3DeSvSeorQhVusvhYnGf6QcOrWSpBn6vldl/F+S0s5ay3FR1NuUBbxOVmHyCA5wbWkmgPWTWqEDxHJZItl/QzgD6ncuNlKpMJneIVKGnXBx+0nylmYKlskwRrLQyKn2dQ1JpS6HbzGfq/Ci6l+aBV4mIWq55yADY01szqwrY8Up0FzwsJVUT8H/bjBjK4VOp3gA/UR1aKMBMX6md4IwsewR9LI3a5HD4w24p25lz6mwQuQYke2AReYYO2uZigGMD7eYM4toroR3j8KlUPwqWk5FB1zh3S4nq5nL3Citk2yzI7eAjBd7n0FGOBuCzi1sbTRJgqaUsY9yllVnncRkAFjW954GZHkRUcf4FBrgwKsiM95jcwkpQtMDdRaK2bi63iiE0icPhIGnsu8HPJ4WoxFUON8r4RvSJ4Gc5PhP8ShZH6wWuHlbSg8FzynzpMdHjqq3+LQ+M54i09p+keQDXpxQy7jhzkNS0HeVws5w0gcfAryNjw/7hsEqaReDvFVeKmmVx+NPuG3UToI0M9Z2C4ZZX+DSH+5UtpLiLWaPMpx5VTwPAU1TruodrqICICg3alAPPu/OLG1TOzaxWhFq7OOwKkWUFeGd9g6i/wB0tSTen4EVSi0YL8IpvZDsnOBRgnu0v8LdDLI9qp3E4GGwddIS5qsxHHuXHeMQTRV4GgNxndRBRxNjdbgCINugFsM+oQu8I8HOAHNFuwftk+DYOme2kaJwKfr9NNfpc4O7lE9E4ARaZNw3CxWR91F+Ady1kOYO6qqz1KB12H0B2KaKKZwEgK0oXEVWefRxJAQZ9x2QXUaboBQE2hMjwRCb4e2WMi0zm8LCtBE1ug8+oR8qFHeNwf6pPFPq3wNnLrM45gvsRvgC9IcBw6+jALVblHY9wWg4A04io9BEASGudByKq/yQZWyid+YPUrZ8hwK4S5j2ZAWEMmRgtQEYP0zolQziS1KPqyRwyfCIaKEBaG3OaPIBwMvkEgXsFGdYRcJ85rcobHoWoQg6AU0RExfcCwIOGeTJ8ANhpCtEgtwB/tzdrfA6En5CpbwrgWmQzRZuZC+Fn5A3oWTcn9HW0vwRI72pGh2QIjwX6BlT+Nie2APqIQSNFVnoEEa0DgFZERIW2AcCtmpJsZNyVVKJpIjhXFjWjzA8QJ4SYY/9eAOyoZULkVoi3BXkHetWnoooPBHDO1ozSpuRA+Kgu+QjU2Wk5T3JvKxLnoRG19FjrQcE/AMDflaQom8PsJbUXiICbo4ONCp7xEOKLZcnkkL9EyFoeYVCxxY8gTixCXiLgL5+KnnUJgISGxtTdAZ0vks9Acywn4DbzMEyNlwHkEBHtBpAc6kEBnwPA2ZIyzAU7STGa4RIBN+dWNKLcvJvQebEimV5oiwhIfa2mAVWXPoTOXeHkLahskk9FU3XAFd80bw2/dkJnHPkQ2karoRUMHGrMB5Dq8SwADGZIexsA9hcyL/AqkxWhGvXJ0AG4d89sFajHXm/yNif0Hq1AEgZ+qQNAQmwzuw5bo+m73ND7Yyh5D2qX41PRKzoAnFzUPlgU2GbeMej+SPMlqPhFq6nlZi4FKDEDwB0P23kA2zmipQDwS4Bpz4NdR+o3OqXH89Gx71YtiY2dt3rdgQzkcVMRklKbkaMHQFriNysXxS5c8dXBFOh3LrKTN6FplnTrfSn7GULT3XoAZJ/95Yu1az7beDoLeYzTSKZv3peytlLU6JHF0A4GQ5SYAOCaB40F4KosoMkuAJ9oJtnPcZ29AIW+7dZnfOYUjWRtdUWf4UmdSE6JtA1WJOnrxlB0sj6jH40iOUWSdlWLXrCa57jTNhVGAbjAhN0FsEBE/bIALDNpINjjmjcganNAhj/rkMSF4nJMy32zGHkbKnLWt6Iqe807Vpd8D/rIYmxnGPRVYQiAEwwtAXBJE1HnFAATTNGOc0PJS2pDzpl1Npokr/2T25zNDUlamahuum9FtudvmnN/UiD5IiH/shYayx22KRAN4BBXJhNARx3U6AbgijajD9jrgd6CyPb0DjP29rGR/PW+zjHM+V0TklgqGuRjERWZec24WwtLkLzWQlUfWEvwNQajFOgFYDdHHwL4TA9VPQdkdTQu+Bw3jrxq1dmHjTm9rBYpWnL8PrcRiVPKktRy0Tu+FlFg9IYMI7I2Dg0hmS2GerkshUZz90vKFwVgu6C2G0gN00OlDsA52LiXwP4d7F2IqEz0m3vv6Mk4sOaFSqR0qZh3DyTrSE38YGBZkl2yoP0+FxGFdX/5z9t67u2Ke7ooSW41tNRaAi8x+FC+dgA2CWgjgP66qNCmYWR49UxuJHnnYg069YyJeS6qUUnykmWaRz0X0zeqxWOk5LMOtpYkVN7h2d+cPg62h2KjHDK3NostVC+qV0zM01ENi5KK5R1SlzekiYPtKov9eYdnMdkGOthK0lE052otXTMAG0StAPysz9RfwZ4M8FL+xjsYHAmQrTaAT0X0B5AdIUk0+E7kF98ol8ErspUH8JaOKAAOOcrf4TaQn/wKzvWUZEUBLNVBCcBfUgTsAptSwV8u7CKDO+XlsrmAWD3PAO7KMrwCfjT5zXd2MdgZIBWlAmP1aMeBmRI85eL+0vznaAWH5XIlAUP00GDgiHkV74B9UJH86AMPcpgk1RngaV32i8h+zKyIU+AHkF99zWTO2VemA0AnXTRgXhkyOSwB/HvkZ9/bzSC7q0S/A031mW//Efz+YH87WsohpZE8PwA1pNI+A3+rAvnd2+I53GkuTf+4uGIy2T8En9GC/PBD9nJI7yaL5MEbwLv6kF9+yVMcsgd4oeK7IBxHfvplznJwT/c65Y5AOJv89qtc5YB3Q7xLu+sQLiE//krnBThcw4tok3MgjCO//rInBEgZ4DVKbobQPZH8/MP/EgBrC3uHTv9AmNmf/P6DPhchaZgXKPG+G8L7HagAoDbLKQC2VFfMPv4hxEcjqWBglzsiZC4OU6lVInR+EUYFBSv8KQJuzy6qStst0Jk+igoQapOzRUBqXIQK7TZBb2JNKljY8KAOIG1VLcmCB+yD3sx5gVTQ0D4tXQfg3jG8mDzNXr8H3TtrUUHE8l+4dQDI+mlYGQnsbV65CP3XBmhUQLHlDl0A3IlxvUuYYG8w/tv7yGPygjAqwBiVoM/TfX7DwuimJfIQGNll9Lu7UpDntGUlqIBj583uPAjTrhzc/l38t/Hxv+48ecsJQ2/Nj6ACkHXfSzbC/AMjQ6iAZNiIv1xy3XyzARWoLDfxr1xZ/lnb2U4FL4v1/eCMaanbYhtSwc2STy/58ZLbmNSE98c1tlPBz5DaPcYtfmfdtu0JiYl/bv/5kxWzBrUuR//3///9/3///6+YVlA4ILQNAAAwZQCdASpcA6YAPnU4mUgkv6KhJXOKW/AOiWNu/GUUFuBpPnFrnd5S/gH4AZ+/o74A/HfPBNoNYoxj+AfgT+SXnN/gH4AfgB0h/8A/A/Y/9n/zW/6f/D/wP/f///31ug38XuXtqe6/vHpo2n9bODLtLzvOkPPJ/o/UL5hf+P9NXoT8xv7Yesr/v/Xp/kem/9Tn+/eoR5zfq9/4n00PQA///tpdKP2Z/mf4Afn/+SObPq7Gj7SHYDKB4G6QJl/9/+AqTHBbUAe5BhLh18dZMDrJgdZMDrJgdZMDrJgdZMDrJgdZJ0Loy6lkAarqdCnV3cvSTY01bGmrY01bGmrY01bGmrY01bGmrY0za1Q/1zrBWFzyiNTbIifxXUYLK6f/2jWSbGmrY01bGmrY01bGmrY01bGmrY01bFxwUSVEdGJWRREvSX8W5PfZrLFLWXvCDF8AulIm3QyB/hVdmK01iki92bmXqT0CdH8UCrUiVEIo1IRHf/U0kMBJYIMy4vscTY0/ZpMHqurfPdaMx7VmwaesdTEW4ON9K4681HCXxSWVzj/LySw7WVjbBMom5kU65G4SEgVOxRn1LRragC/ZWjThtCsvoISwzQO3wNlSOrbYjD9UiULTNiU3SJJxhHTiYlxpksLAP/qy5egPVL57ePrhROYlqTiV/je431lw2P3z6lU8JdtSN7Xb3PPkp9Lp61r+SEecmhbaUvQaDXlpjoPq4JAwB6K0la+a6RJOMI6Psltrbu0/F8aTxxj0t2KEO9qQRq73r+Gdvxd73RjA9iJMNtDd+kZg1ppFvNB/krwmw/RxV0iNPVfjYo2+7Ikz8RzIOZb76P43MARxg9WqEdh1aY09B3o9XiFkQk4v+fRlXlUVLZ3kLx8u4A9kSV4/QviYNV6q3ZR1gNJSmISzVjr2zY7b6Es1irf2VRXzI3nVueGupnjrd/C9QFZ6/pC2l3TCOFPPT2Yzi2hVpTwEomAlEwEomAvhHbASiYEQJgJRMBfCO2Af/0Dmc47/1azlEwEomAlEwEomAlEwEomAlEwEomAlEwEomAlEwEomAlEwEomAlEwEomAlEwEomAlEwEolMAD+HdB3+5HzJOTt84RMa8J26aNfmwybCLJi6zEVyDiJgjpqmdi/SpPfYfkCgAAAAAEmI+p7zwP4v4gh9KiguszC/fF2nOrg8oq9D9nfFf2x4edqw95qjQr26FasbfcMMf6F4VdiH2Q1N2YJlo8b3xUX6zTRuVHSZ9zr4VaT4gUD5EFVa4k4f64v5SoywTAaXperE/DbSwX+6hbFsSqnYq1X7zx2uBIAAAAAAUTBW7C1Hc61R0zkOZskAdZq554QdUhVlXmgpEs9parbM6UMEvAyrU/G6jecWWn3GqXp7X+GGSm6YG7ikpGPuoj7A+CPRhAMqAAIROsgwqvEUw0rpvuZ2G2YRWzSiAzFGkF2rj1rB02jQCqkAAAAAKJuhV3SmVZRiLOHBcSDz5W9jydmSBGZOOycnFkrS5eLRxs5geBOCeWJT5mBDg3HkfSsN3hbLiaggwoylwOedsrF9SnS/I8x+dpJ0gNanjKhbiKaqJVS0zsGkbX+OWQpuIMy6koMutM5CRK5blefFfCDMo0aYeme34bnQWygf2lqDlkrac4RxHOdMGVLUYsLwUI5YPflEacguHDcc102D8x0BeRdk7pTd+Xvbd9BPbR2nDLWzijywOsRVMEhS1olUOwpe9TG+mmCPXLxMxfybPtSIJNmyQ1cDYiuwyPtsE1GS6gP8tfRL9VstbeG3NxY5CIYD4lwgMsHOKCfsmbj/WPC/YXY7PNJDG6hsOg1tExDvFUZN5fatA4bE+4m4wJcnOADHZ1pjk212EPxQH9pfiWT0rtaJnal3eTgXZzA2hKqg7MUQAsTiOCy0/9hhLhTc5mc7n4ZgFJ0aOy1NrPwlRfQOXEtRYfe9KL7sUVWTYnRxs/FreRCbklZ1Y36VKLBq0o1tNpIi/uVq+KhBAQ1/AhUZj47xyl0LcfiaOr8Kb1KefDtMgyK/b5WZ2X4I8qJaIBbUSBl67fJc7IKX2O9rhOvyzfNUQRN+FUDOFXpYTl4Jam/2Q8PYvsT+WuGfZNsoJxS4VbWN0xa4R2uUC5pNxNbY5itlBw8qc1LVxBb7UDFXn/4U9gVBHct888Y62RCdydfqQ5xPAqm9DVpRrabSRF/+vbilbk0pU6l3eUVEbjaPqbaVH0Nn70YehesHIKcVrXdl2O2e0AY1ZyNB8OmW96GASLjy94Op8h2qd3M81eFY6oS2v9bJjeEjIODflb8HJyTqMziU7vAdjAcrKSr1wlw/Qz6Sl7npifAYqz65T6eYsmbUNrjEKbskf4VZ+C7SDbAynwItoHKkWEHN0nGlrDpXZiWGOkFDiYb1b0DngAsgG3iNlvguwmpBiRwZTo+pUirzE90jEfQBKsPIOyWT/hIR2uS3+5tA9mE8doAaE3WrZEZg6Xt+8SkSrn8CuyUTVOu6xGYWjU1OKclBMpCWSfLBDAYVL0UDpvsvDseULLOXVCEW5kci4igUo02sBKQBLSQfoYDDXCnWCZPePzpste/9cqgM8OPLu0TYi8xgx6eYe6o4QHA1k77lpIeaTnTEpfnJSrSznsHkuGmCnkQ2FaPQhWSLZzxRFymuiQGX92ebZgTObxhVD9XYgXpI2GAKQYj0eLMPuIOvnDkxlxeqLEyXCKmASPjdICDC8ZtSOMjzq+nhuaYmqetyrDSXgUIvXVu/99arF/rUh4nzny4FcH+QNG1jELp8+R4tEJnKDJsSyFZiJKbtcVmvfP6SQ5TgeOhwsn1TeoG0WS+c4zcDEO/Fp1YSaTAYfgkEQ28+nExhOPG74Z9mb63sMnT/jugbHt8+GabkdwMUEin5Ber7eoWy85A0TgEskKndXM4SjlqBU4/4RqYS208CR13exyMULIF8uIwpcj6k2IhNxd2C9fE4HaRZHyUGKB01gGfT2Gr/7z8QjPHfktGv4zD3dyMbpnepVH4wIs0J3e1cweZ/8rSpFvF8EZIzUUb+jHPqZ+JYoQNfZ20Jam/mjdAqgQheO+HDrWVXXreZPI9WIIaV8ZeSd3ej5TXTFerN0Sy+oIb/Zxr4Ny9j3Hd3s4Nv9QNUoZFes6qBkGEToi8yiwnMeAWxtxl133n0BU/loAj+Rs8saSnAmCDGH2IsDb74Yn9wseLrdR8WO75f11TQ73VKp4zk7HPirD9AOuSSIBQaC73YQhtxWKGxQ5elkL50iR0bGjICBZBNyqbPrhxIjunuYUlWBe8oCoUSwdtVeHhXdegn0FT1OK5GAxHWaGqaHo84GFuLMB2y0MIfGXN40iJAHg1NTaD3oxWkL5l3YZ4Na2SCl7C9U/UXYFS0g94KR5PPF5cT+SrK1Yc+nnJf7AgtDFWrMQPCQm78RhTm0stolqPUl8xtn6JExiCYcSQYQ3jpr0yww+jOPp0X2qurGlEle24PZV7YPFy//Ac5FwAZA+5JIgKSLavPvq93gbKBLxSIyNziDLE3oOwgqIIWM2XhDPquwfrOBm4Di3lZbPfP+UfRttuOk4/eH/JJRrnCWUJbU2ZVD+MzqaHesDqe7g/nV48EgXrGqEIc5BAkDknKlXf6cM41fFltg8kauGyBbwHLMlZkK/dbnUJ9SsuRmst9lCYGkiI1iVmeZPJ76RteRAnmeUDKLRCE0Hvy7ZA1/DQRvzy0dgVO8hPkA9E1I6NV/7Pf73CUL2jUlz8SgaYKmNPomnAhEqs4G2INR+WaUosvicWGFex3zVqJWUHY8mCWym46RXZa/c/6LtP6P5KRLPQNmfYNbuzULB1uo1aznAW6PHWDc2Wq0YkBm+mhaXY/jgTCSJOG47Nz8Mwx1yBx1U64DFKzrnxz4Lip11BNySf/c1ovnObG5OqvvvBRcLrB4+CQI2BbMVj+U2N/0EWMmUIYo9DzQg9OS5WGT5D4nSMzj2zbWO8HyinpEsAoxkTnpadCfAknwS4hyEHdqkhc4wB+FlpcEwXHsMdsdR7PxWq+58iISVBznqZy5LNcdRBItPEDeOhf6QZNQXc067UDNAsHV9q3WYoLC3nLUfZNFycoxE/xKv6JoPjTal/ap2emW5vLTIDT2S8d7fP0wItiqa+6COlz2KGvqPb8QzaIzvmtPRuDoyMegDYMGEc0mSusK//COANpfFW0LEABR4nEEdn30GM0HGvyckvKAoaZM5xfAB/bxGARNdkNXFd7b9ksctxRqqoHJ9zmbg8ADcAn0P8tcogQMTVdJrtwgHcaeklBPS2KIV0ULLe3XI00eOVMTw+OUSFiRLpjUlNVrNec3rJALqoYyQxtIW/hmqAdGKW9FtzFcDeqAeOlYIX08F11ECuoAoaOK6g6+HSw7QWczmRywRN1WqqSBc6NDaJq5Ev+fhChHpBVusXDPt2u3B4lZ2QT328LBQP7StKCRU8uO+Ro3ILR9YgvD7zsz6tMomOKTciTOqTeYAqooBNJr9cSlVzKAaY+Xo0AN8K8E/KJ5UAHeIkc4wIFx0UFJs8FiZ04My9X6UeHTByYPjNCQaXpUDHIRWwFEXMbpV6aEGWvtk0N/gAAAAAAAAAAACEJyKbsdUvTzOwmU5Lmok+mOBCKGLWBn95I8wp7vbNkdRqbDCX+e8Kaxcz3qYsgAAAAAAAAAAAAAAAAAAARVhJRroAAABFeGlmAABJSSoACAAAAAYAEgEDAAEAAAABAAAAGgEFAAEAAABWAAAAGwEFAAEAAABeAAAAKAEDAAEAAAACAAAAEwIDAAEAAAABAAAAaYcEAAEAAABmAAAAAAAAAEgAAAABAAAASAAAAAEAAAAGAACQBwAEAAAAMDIxMAGRBwAEAAAAAQIDAACgBwAEAAAAMDEwMAGgAwABAAAA//8AAAKgBAABAAAAXAMAAAOgBAABAAAApgAAAAAAAAA=;" vertex="1" parent="5oMmjMAf5zsthHY-WXvj-6">
          <mxGeometry x="15" y="10" width="155.41" height="30" as="geometry" />
        </mxCell>
        <mxCell id="5oMmjMAf5zsthHY-WXvj-7" value="Kafka Topic" style="shape=image;verticalLabelPosition=bottom;verticalAlign=top;imageAspect=0;aspect=fixed;image=data:image/svg+xml,PHN2ZyB4bWxucz0iaHR0cDovL3d3dy53My5vcmcvMjAwMC9zdmciIGZpbGw9Im5vbmUiIHZpZXdCb3g9IjAgMCA0OCA0OCIgaGVpZ2h0PSI0OCIgd2lkdGg9IjQ4Ij4mI3hhOzxwYXRoIGZpbGw9IiMwNDA1MzEiIGQ9Ik0yNyA4QzI3IDkuMTA0NTcgMjYuMTA0NiAxMCAyNSAxMEMyMy44OTU0IDEwIDIzIDkuMTA0NTcgMjMgOEMyMyA2Ljg5NTQzIDIzLjg5NTQgNiAyNSA2QzI2LjEwNDYgNiAyNyA2Ljg5NTQzIDI3IDhaTTI2LjQ4MzQgMTIuNzc2M0MyOC41MjA1IDEyLjE0NDMgMzAgMTAuMjQ0OSAzMCA4QzMwIDUuMjM4NTggMjcuNzYxNCAzIDI1IDNDMjIuMjM4NiAzIDIwIDUuMjM4NTggMjAgOEMyMCAxMC4yNDQ5IDIxLjQ3OTUgMTIuMTQ0MyAyMy41MTY2IDEyLjc3NjNDMjMuNTA1NyAxMi44NDkzIDIzLjUgMTIuOTI0IDIzLjUgMTNWMTYuNjVDMjAuMDc2NiAxNy4zNDQ5IDE3LjUgMjAuMzcxNiAxNy41IDI0QzE3LjUgMjcuNjI4NCAyMC4wNzY2IDMwLjY1NTEgMjMuNSAzMS4zNVYzNUMyMy41IDM1LjA3NiAyMy41MDU3IDM1LjE1MDcgMjMuNTE2NiAzNS4yMjM3QzIxLjQ3OTUgMzUuODU1NyAyMCAzNy43NTUxIDIwIDQwQzIwIDQyLjc2MTQgMjIuMjM4NiA0NSAyNSA0NUMyNy43NjE0IDQ1IDMwIDQyLjc2MTQgMzAgNDBDMzAgMzcuNzU1MSAyOC41MjA1IDM1Ljg1NTcgMjYuNDgzNCAzNS4yMjM3QzI2LjQ5NDMgMzUuMTUwNyAyNi41IDM1LjA3NiAyNi41IDM1VjMxLjM1QzI4LjIxOTMgMzEuMDAxIDI5LjcyNSAzMC4wNjM5IDMwLjc5OCAyOC43NTc4TDM1LjE5IDMxLjQ2NjRDMzUuMTAwNiAzMi4xMTY3IDM1LjEzODYgMzIuNzk1NCAzNS4zMjMzIDMzLjQ2ODRDMzYuMDU0MiAzNi4xMzE0IDM4LjgwNTQgMzcuNjk3NyA0MS40NjgzIDM2Ljk2NjhDNDQuMTMxMyAzNi4yMzYgNDUuNjk3NiAzMy40ODQ4IDQ0Ljk2NjcgMzAuODIxOEM0NC4yMzU5IDI4LjE1ODkgNDEuNDg0NyAyNi41OTI2IDM4LjgyMTcgMjcuMzIzNEMzNy44OTEzIDI3LjU3ODggMzcuMDk0OCAyOC4wODA3IDM2LjQ4MzMgMjguNzM5NEwzMi4yMDIzIDI2LjA5OTFDMzIuMzk2MSAyNS40MzMgMzIuNSAyNC43Mjg3IDMyLjUgMjRDMzIuNSAyMy4zMTg2IDMyLjQwOTEgMjIuNjU4NCAzMi4yMzg4IDIyLjAzMDhMMzYuNTc1OCAxOS42NDhDMzcuMTc3NCAyMC4yNTU4IDM3Ljk0MyAyMC43MTczIDM4LjgyODQgMjAuOTU1NUM0MS40OTUgMjEuNjcyOCA0NC4yMzgyIDIwLjA5MjUgNDQuOTU1NSAxNy40MjU5QzQ1LjY3MjggMTQuNzU5MiA0NC4wOTI1IDEyLjAxNiA0MS40MjU5IDExLjI5ODdDMzguNzU5MiAxMC41ODE1IDM2LjAxNiAxMi4xNjE3IDM1LjI5ODggMTQuODI4NEMzNS4xMDM0IDE1LjU1NDQgMzUuMDc4NSAxNi4yODYyIDM1LjE5OTQgMTYuOTgxMkwzMC44ODU5IDE5LjM1MTJDMjkuODA3OSAxNy45ODgzIDI4LjI2NjcgMTcuMDA4NyAyNi41IDE2LjY1VjEzQzI2LjUgMTIuOTI0IDI2LjQ5NDMgMTIuODQ5MyAyNi40ODM0IDEyLjc3NjNaTTI1IDI4LjVDMjcuNDg1MyAyOC41IDI5LjUgMjYuNDg1MyAyOS41IDI0QzI5LjUgMjEuNTE0NyAyNy40ODUzIDE5LjUgMjUgMTkuNUMyMi41MTQ3IDE5LjUgMjAuNSAyMS41MTQ3IDIwLjUgMjRDMjAuNSAyNi40ODUzIDIyLjUxNDcgMjguNSAyNSAyOC41Wk0yNSA0MkMyNi4xMDQ2IDQyIDI3IDQxLjEwNDYgMjcgNDBDMjcgMzguODk1NCAyNi4xMDQ2IDM4IDI1IDM4QzIzLjg5NTQgMzggMjMgMzguODk1NCAyMyA0MEMyMyA0MS4xMDQ2IDIzLjg5NTQgNDIgMjUgNDJaTTQwLjY0NjYgMTQuMTk1OEM0MS43MTMzIDE0LjQ4MjcgNDIuMzQ1NCAxNS41OCA0Mi4wNTg1IDE2LjY0NjZDNDEuNzcxNiAxNy43MTMzIDQwLjY3NDMgMTguMzQ1NCAzOS42MDc2IDE4LjA1ODVDMzguNTQxIDE3Ljc3MTYgMzcuOTA4OSAxNi42NzQzIDM4LjE5NTggMTUuNjA3NkMzOC40ODI3IDE0LjU0MSAzOS41OCAxMy45MDg4IDQwLjY0NjYgMTQuMTk1OFpNNDAuNjc0MyAzNC4wNzM4QzQxLjczOTUgMzMuNzgxNSA0Mi4zNjYgMzIuNjgxIDQyLjA3MzcgMzEuNjE1OEM0MS43ODE0IDMwLjU1MDYgNDAuNjgwOSAyOS45MjQxIDM5LjYxNTcgMzAuMjE2NEMzOC41NTA1IDMwLjUwODggMzcuOTI0IDMxLjYwOTMgMzguMjE2MyAzMi42NzQ0QzM4LjUwODcgMzMuNzM5NiAzOS42MDkyIDM0LjM2NjEgNDAuNjc0MyAzNC4wNzM4WiIgY2xpcC1ydWxlPSJldmVub2RkIiBmaWxsLXJ1bGU9ImV2ZW5vZGQiLz4mI3hhOzxwYXRoIGZpbGw9InVybCgjcGFpbnQwX2xpbmVhcikiIGQ9Ik0xMCAyNEMxMCAxOC44NDU4IDEzLjc1NjggMTUgMTggMTVMMTggMTFDMTEuMTk3NSAxMSA2IDE3LjAwMzkgNiAyNEM2IDMwLjk5NjEgMTEuMTk3NSAzNyAxOCAzN0wxOCAzM0MxMy43NTY4IDMzIDEwIDI5LjE1NDIgMTAgMjRaIiBjbGlwLXJ1bGU9ImV2ZW5vZGQiIGZpbGwtcnVsZT0iZXZlbm9kZCIvPiYjeGE7PGRlZnM+JiN4YTs8bGluZWFyR3JhZGllbnQgZ3JhZGllbnRVbml0cz0idXNlclNwYWNlT25Vc2UiIHkyPSIzNSIgeDI9IjE4IiB5MT0iMTMiIHgxPSIxOCIgaWQ9InBhaW50MF9saW5lYXIiPiYjeGE7PHN0b3Agc3RvcC1jb2xvcj0iIzM5Q0RFRSIvPiYjeGE7PHN0b3Agc3RvcC1vcGFjaXR5PSIwLjQiIHN0b3AtY29sb3I9IiMzOENDRUQiIG9mZnNldD0iMSIvPiYjeGE7PC9saW5lYXJHcmFkaWVudD4mI3hhOzwvZGVmcz4mI3hhOzwvc3ZnPg==;" vertex="1" parent="5oMmjMAf5zsthHY-WXvj-6">
          <mxGeometry x="141" y="51" width="78" height="78" as="geometry" />
        </mxCell>
        <mxCell id="5oMmjMAf5zsthHY-WXvj-10" style="rounded=0;orthogonalLoop=1;jettySize=auto;html=1;exitX=1;exitY=0;exitDx=0;exitDy=0;entryX=0;entryY=0.75;entryDx=0;entryDy=0;startArrow=block;startFill=0;endArrow=none;" edge="1" parent="1" source="5oMmjMAf5zsthHY-WXvj-9" target="5oMmjMAf5zsthHY-WXvj-7">
          <mxGeometry relative="1" as="geometry" />
        </mxCell>
        <mxCell id="5oMmjMAf5zsthHY-WXvj-12" style="edgeStyle=orthogonalEdgeStyle;rounded=0;orthogonalLoop=1;jettySize=auto;html=1;entryX=0;entryY=0.5;entryDx=0;entryDy=0;" edge="1" parent="1" source="5oMmjMAf5zsthHY-WXvj-9" target="5oMmjMAf5zsthHY-WXvj-13">
          <mxGeometry relative="1" as="geometry">
            <mxPoint x="290" y="525" as="targetPoint" />
          </mxGeometry>
        </mxCell>
        <mxCell id="5oMmjMAf5zsthHY-WXvj-9" value="Consumer" style="shape=image;verticalLabelPosition=bottom;verticalAlign=top;imageAspect=0;aspect=fixed;image=data:image/svg+xml,PHN2ZyB4bWxucz0iaHR0cDovL3d3dy53My5vcmcvMjAwMC9zdmciIGZpbGw9Im5vbmUiIHZpZXdCb3g9IjAgMCA0OCA0OCIgaGVpZ2h0PSI0OCIgd2lkdGg9IjQ4Ij4mI3hhOzxyZWN0IGZpbGw9InVybCgjcGFpbnQwX2xpbmVhcikiIGhlaWdodD0iNCIgd2lkdGg9IjI4IiB5PSIzMiIvPiYjeGE7PHBhdGggZmlsbD0iIzA0MDUzMSIgZD0iTTYuMjIzMTEgNDJMNDEuNzc4IDQyQzQwLjQwNTEgMzIuODMzNSAzMi44Njk1IDI2IDI0LjAwMDYgMjZDMTUuMTMxNyAyNiA3LjU5NjA0IDMyLjgzMzUgNi4yMjMxMSA0MlpNMy4wODYwNyA0My4wMDEyQzQuMDUwMDUgMzEuNzg3NiAxMy4wNDU3IDIzIDI0LjAwMDYgMjNDMzQuOTU1NCAyMyA0My45NTExIDMxLjc4NzYgNDQuOTE1MSA0My4wMDEyQzQ1LjAwOTcgNDQuMTAxNyA0NC4xMDUxIDQ1IDQzLjAwMDYgNDVMNS4wMDA1NyA0NUMzLjg5NiA0NSAyLjk5MTQ3IDQ0LjEwMTcgMy4wODYwNyA0My4wMDEyWiIgY2xpcC1ydWxlPSJldmVub2RkIiBmaWxsLXJ1bGU9ImV2ZW5vZGQiLz4mI3hhOzxwYXRoIGZpbGw9IiMwNDA1MzEiIGQ9Ik0yNCAyMEMyNy44NjYgMjAgMzEgMTYuODY2IDMxIDEzQzMxIDkuMTM0MDEgMjcuODY2IDYgMjQgNkMyMC4xMzQgNiAxNyA5LjEzNDAxIDE3IDEzQzE3IDE2Ljg2NiAyMC4xMzQgMjAgMjQgMjBaTTI0IDIzQzI5LjUyMjggMjMgMzQgMTguNTIyOCAzNCAxM0MzNCA3LjQ3NzE1IDI5LjUyMjggMyAyNCAzQzE4LjQ3NzIgMyAxNCA3LjQ3NzE1IDE0IDEzQzE0IDE4LjUyMjggMTguNDc3MiAyMyAyNCAyM1oiIGNsaXAtcnVsZT0iZXZlbm9kZCIgZmlsbC1ydWxlPSJldmVub2RkIi8+JiN4YTs8cGF0aCBmaWxsPSIjMDQwNTMxIiBkPSJNNy4xMzg0IDIzLjQ2MDNDNS42NDMyOSAyNC43NTc3IDUuNDgzIDI3LjAyMTUgNi43ODAzNyAyOC41MTY2QzcuMzIzMzIgMjkuMTQyMyA3LjI1NjI0IDMwLjA4OTYgNi42MzA1NCAzMC42MzI2QzYuMDA0ODQgMzEuMTc1NSA1LjA1NzQ3IDMxLjEwODUgNC41MTQ1MiAzMC40ODI4QzIuMTMxMjQgMjcuNzM2MiAyLjQyNTcgMjMuNTc3NyA1LjE3MjIxIDIxLjE5NDVDNy45MTg3MSAxOC44MTEyIDEyLjA3NzIgMTkuMTA1NiAxNC40NjA1IDIxLjg1MjJDMTUuMDAzNCAyMi40Nzc4IDE0LjkzNjQgMjMuNDI1MiAxNC4zMTA3IDIzLjk2ODJDMTMuNjg1IDI0LjUxMTEgMTIuNzM3NiAyNC40NDQgMTIuMTk0NiAyMy44MTgzQzEwLjg5NzMgMjIuMzIzMiA4LjYzMzUgMjIuMTYyOSA3LjEzODQgMjMuNDYwM1oiIGNsaXAtcnVsZT0iZXZlbm9kZCIgZmlsbC1ydWxlPSJldmVub2RkIi8+JiN4YTs8cGF0aCBmaWxsPSIjMDQwNTMxIiBkPSJNNDEuMTMwMiAyMy42NTU4QzM5LjczMDQgMjIuMjU2IDM3LjQ2MSAyMi4yNTYgMzYuMDYxMyAyMy42NTU4QzM1LjQ3NTUgMjQuMjQxNSAzNC41MjU3IDI0LjI0MTUgMzMuOTM5OSAyMy42NTU4QzMzLjM1NDEgMjMuMDcgMzMuMzU0MSAyMi4xMjAyIDMzLjkzOTkgMjEuNTM0NEMzNi41MTEyIDE4Ljk2MzEgNDAuNjgwMiAxOC45NjMxIDQzLjI1MTUgMjEuNTM0NEM0NS44MjI4IDI0LjEwNTcgNDUuODIyOCAyOC4yNzQ3IDQzLjI1MTUgMzAuODQ2QzQyLjY2NTcgMzEuNDMxOCA0MS43MTU5IDMxLjQzMTggNDEuMTMwMiAzMC44NDZDNDAuNTQ0NCAzMC4yNjAyIDQwLjU0NDQgMjkuMzEwNCA0MS4xMzAyIDI4LjcyNDdDNDIuNTI5OSAyNy4zMjQ5IDQyLjUyOTkgMjUuMDU1NSA0MS4xMzAyIDIzLjY1NThaIiBjbGlwLXJ1bGU9ImV2ZW5vZGQiIGZpbGwtcnVsZT0iZXZlbm9kZCIvPiYjeGE7PGRlZnM+JiN4YTs8bGluZWFyR3JhZGllbnQgZ3JhZGllbnRVbml0cz0idXNlclNwYWNlT25Vc2UiIHkyPSIzMiIgeDI9IjAiIHkxPSIzMiIgeDE9IjI4IiBpZD0icGFpbnQwX2xpbmVhciI+JiN4YTs8c3RvcCBzdG9wLWNvbG9yPSIjMzhDQ0VEIi8+JiN4YTs8c3RvcCBzdG9wLW9wYWNpdHk9IjAuNCIgc3RvcC1jb2xvcj0iIzM4Q0NFRCIgb2Zmc2V0PSIxIi8+JiN4YTs8L2xpbmVhckdyYWRpZW50PiYjeGE7PC9kZWZzPiYjeGE7PC9zdmc+;" vertex="1" parent="1">
          <mxGeometry x="25" y="470" width="110" height="110" as="geometry" />
        </mxCell>
        <mxCell id="5oMmjMAf5zsthHY-WXvj-16" style="edgeStyle=orthogonalEdgeStyle;rounded=0;orthogonalLoop=1;jettySize=auto;html=1;" edge="1" parent="1" source="5oMmjMAf5zsthHY-WXvj-13">
          <mxGeometry relative="1" as="geometry">
            <mxPoint x="400" y="525" as="targetPoint" />
          </mxGeometry>
        </mxCell>
        <mxCell id="5oMmjMAf5zsthHY-WXvj-13" value="kafka_ecom_events" style="editableCssRules=.*;html=1;shape=image;verticalLabelPosition=bottom;labelBackgroundColor=#ffffff;verticalAlign=top;aspect=fixed;imageAspect=0;image=data:image/svg+xml,PHN2ZyB4bWxucz0iaHR0cDovL3d3dy53My5vcmcvMjAwMC9zdmciIHhtbG5zOnY9Imh0dHBzOi8vdmVjdGEuaW8vbmFubyIgd2lkdGg9IjIwLjAwMTA0NTIyNzA1MDc4IiBoZWlnaHQ9IjIwLjAwMTA0NTIyNzA1MDc4IiBmaWxsLXJ1bGU9ImV2ZW5vZGQiIHZpZXdCb3g9IjAgMCAyMC4wMDEwNDUyMjcwNTA3OCAyMC4wMDEwNDUyMjcwNTA3OCI+JiN4YTsJPHN0eWxlIHR5cGU9InRleHQvY3NzIj4mI3hhOwkuc3Qwe2ZpbGw6I2FlY2JmYTt9JiN4YTsJLnN0MXtmaWxsOiM2NjlkZjY7fSYjeGE7CS5zdDJ7ZmlsbDojNDI4NWY0O30mI3hhOwk8L3N0eWxlPiYjeGE7CTxwYXRoIGNsYXNzPSJzdDAiIGQ9Ik00LjczIDguODN2Mi42M2E0LjkxIDQuOTEgMCAwIDAgMS43MSAxLjc0VjguODN6Ii8+JiN4YTsJPHBhdGggY2xhc3M9InN0MSIgZD0iTTcuODkgNi40MXY3LjUzQTcuNjIgNy42MiAwIDAgMCA5IDE0YTggOCAwIDAgMCAxIDBWNi40MXoiLz4mI3hhOwk8cGF0aCBjbGFzcz0ic3QwIiBkPSJNMTEuNjQgOS44NnYzLjI5YTUgNSAwIDAgMCAxLjctMS44MlY5Ljg2eiIvPiYjeGE7CTxwYXRoIGNsYXNzPSJzdDIiIGQ9Ik0xNS43NCAxNC4zMmwtMS40MiAxLjQyYS40Mi40MiAwIDAgMCAwIC42bDMuNTQgMy41NGEuNDIuNDIgMCAwIDAgLjU5IDBsMS40My0xLjQzYS40Mi40MiAwIDAgMCAwLS41OWwtMy41NC0zLjU0YS40Mi40MiAwIDAgMC0uNiAwIi8+JiN4YTsJPHBhdGggY2xhc3M9InN0MSIgZD0iTTkgMGE5IDkgMCAxIDAgMCAxOEE5IDkgMCAxIDAgOSAwbTAgMTUuNjlhNi42OCA2LjY4IDAgMCAxIC4wMDctMTMuMzYgNi42OCA2LjY4IDAgMCAxIDQuNzI3IDExLjQwM0E2LjY4IDYuNjggMCAwIDEgOSAxNS42OSIvPiYjeGE7PC9zdmc+;" vertex="1" parent="1">
          <mxGeometry x="230" y="475" width="100" height="100" as="geometry" />
        </mxCell>
        <mxCell id="5oMmjMAf5zsthHY-WXvj-18" style="edgeStyle=orthogonalEdgeStyle;rounded=0;orthogonalLoop=1;jettySize=auto;html=1;entryX=0;entryY=0.5;entryDx=0;entryDy=0;" edge="1" parent="1" source="5oMmjMAf5zsthHY-WXvj-15" target="5oMmjMAf5zsthHY-WXvj-19">
          <mxGeometry relative="1" as="geometry">
            <mxPoint x="700" y="527.75" as="targetPoint" />
          </mxGeometry>
        </mxCell>
        <mxCell id="5oMmjMAf5zsthHY-WXvj-15" value="Creates downstream tables" style="shape=image;verticalLabelPosition=bottom;labelBackgroundColor=default;verticalAlign=top;aspect=fixed;imageAspect=0;editableCssRules=.*;image=data:image/svg+xml,PHN2ZyB4bWxucz0iaHR0cDovL3d3dy53My5vcmcvMjAwMC9zdmciIGZpbGw9Im5vbmUiIHZpZXdCb3g9IjAgMCAyMjIuOTI5OTkyNjc1NzgxMjUgODEiIGhlaWdodD0iODEiIHdpZHRoPSIyMjIuOTI5OTkyNjc1NzgxMjUiPiYjeGE7PHBhdGggZmlsbD0iIzI2MkEzOCIgZD0iTTEzOC43MSAxMi41MlY2Ny44MUgxMjcuNVY2Mi4xN0MxMjYuMzMgNjQuMTUgMTI0LjY0IDY1Ljc2IDEyMi41OSA2Ni43OEMxMjAuMzkgNjcuODggMTE3LjkgNjguNDYgMTE1LjQxIDY4LjQ2QzExMi4zMyA2OC41MyAxMDkuMjYgNjcuNjUgMTA2LjY5IDY1LjlDMTA0LjA1IDY0LjE0IDEwMiA2MS43MyAxMDAuNjggNTguODdDOTkuMjIwMSA1NS41NyA5OC40ODAxIDUyLjA2IDk4LjU2MDEgNDguNDdDOTguNDkwMSA0NC44OCA5OS4yMjAxIDQxLjM3IDEwMC42OCAzOC4xNEMxMDIgMzUuMzYgMTA0LjA1IDMyLjk0IDEwNi42MSAzMS4yNkMxMDkuMjUgMjkuNTggMTEyLjMyIDI4Ljc3IDExNS40IDI4Ljg0QzExNy44MiAyOC44NCAxMjAuMjMgMjkuMzUgMTIyLjM2IDMwLjQ1QzEyNC40MSAzMS40OCAxMjYuMSAzMy4wMSAxMjcuMjcgMzQuOTJWMTYuMjZMMTM4LjcgMTIuNTJIMTM4LjcxWk0xMjUuMjMgNTYuOUMxMjYuNjkgNTUgMTI3LjUgNTIuMjEgMTI3LjUgNDguNjJDMTI3LjUgNDUuMDMgMTI2Ljc3IDQyLjMyIDEyNS4yMyA0MC40MkMxMjMuNjkgMzguNTIgMTIxLjI3IDM3LjQyIDExOC43OSAzNy40OUMxMTYuMyAzNy4zNCAxMTMuODggMzguNDQgMTEyLjI3IDQwLjM1QzExMC43MyA0Mi4yNSAxMDkuOTMgNDQuOTYgMTA5LjkzIDQ4LjQ4QzEwOS45MyA1MiAxMTAuNzQgNTQuODUgMTEyLjI3IDU2LjgzQzExMy44MSA1OC44MSAxMTYuMyA1OS45MSAxMTguNzkgNTkuODNDMTIxLjU3IDU5LjgzIDEyMy43NyA1OC44IDEyNS4yMyA1Ni45Wk0xNzguNzcgMzEuMTlDMTgxLjQxIDMyLjg3IDE4My40NiAzNS4yOSAxODQuNyAzOC4wN0MxODYuMTYgNDEuMjkgMTg2LjkgNDQuODEgMTg2LjgyIDQ4LjRDMTg2Ljg5IDUxLjk5IDE4Ni4xNiA1NS41OCAxODQuNyA1OC44QzE4My4zOCA2MS42NiAxODEuMzMgNjQuMDcgMTc4LjY5IDY1LjgzQzE3Ni4xMyA2Ny41MSAxNzMuMDUgNjguMzkgMTY5Ljk4IDY4LjMyQzE2Ny40OSA2OC4zOSAxNjUgNjcuODEgMTYyLjggNjYuNjRDMTYwLjc1IDY1LjYxIDE1OS4wNiA2NCAxNTcuOTcgNjIuMDNWNjcuNzRIMTQ2LjY5VjE2LjI2TDE1OC4wNCAxMi41MlYzNS4wOEMxNTkuMTQgMzMuMSAxNjAuODIgMzEuNDkgMTYyLjg3IDMwLjQ3QzE2NS4wNyAyOS4zIDE2Ny40OCAyOC43MSAxNjkuOTcgMjguNzlDMTczLjA1IDI4LjcyIDE3Ni4xMiAyOS42IDE3OC43NiAzMS4yMUwxNzguNzcgMzEuMTlaTTE3My4yIDU2LjgyQzE3NC43NCA1NC44NCAxNzUuNDcgNTIuMDYgMTc1LjQ3IDQ4LjRDMTc1LjQ3IDQ0Ljc0IDE3NC43NCA0Mi4xNyAxNzMuMiA0MC4yN0MxNzEuNjYgMzguMzcgMTY5LjU0IDM3LjQxIDE2Ni43NiAzNy40MUMxNjQuMjcgMzcuMjYgMTYxLjg1IDM4LjM2IDE2MC4yNCA0MC4zNEMxNTguNyA0Mi4zMiAxNTcuOTcgNDUuMDMgMTU3Ljk3IDQ4LjU0QzE1Ny45NyA1Mi4wNSAxNTguNyA1NC45MSAxNjAuMjQgNTYuODJDMTYxLjc4IDU4LjggMTY0LjE5IDU5LjkgMTY2Ljc2IDU5Ljc1QzE2OS4yNSA1OS45IDE3MS42NyA1OC44IDE3My4yIDU2LjgyWk0yMDIuNSAzOC4yMkgyMTIuMTdWMjkuNzJIMjAyLjVWMTcuMTJMMTkxLjE1IDIwLjc4VjUzLjI0QzE5MS4xNSA1OC4wNyAxOTIuNCA2MS44MSAxOTQuODkgNjQuNDVDMTk3LjM4IDY3LjA5IDIwMC45NyA2OC40IDIwNS42NiA2OC40QzIwNy44NiA2OC40NyAyMTAuMDUgNjguMTEgMjEyLjE4IDY3LjM3VjU4LjU4QzIxMS4wMSA1OC44NyAyMDkuNjkgNTkuMDkgMjA4LjQ0IDU5LjA5QzIwNi44MyA1OS4xNiAyMDUuMjkgNTguNjUgMjA0LjEyIDU3LjYzQzIwMy4wOSA1Ni42OCAyMDIuNTEgNTUuMTQgMjAyLjUxIDUzLjAyVjM4LjIzTDIwMi41IDM4LjIyWiIvPiYjeGE7PHBhdGggZmlsbD0iI0ZGNjk0QSIgZD0iTTc3LjU2IDMuMzdDNzkuNDYgNS4yIDgwLjcxIDcuNjIgODEgMTAuMjVDODEgMTEuMzUgODAuNzEgMTIuMDggODAuMDUgMTMuNDdDNzkuMzkgMTQuODYgNzEuMjYgMjguOTIgNjguODQgMzIuOEM2Ny40NSAzNS4wNyA2Ni43MiAzNy43OCA2Ni43MiA0MC40MkM2Ni43MiA0My4wNiA2Ny40NSA0NS43NyA2OC44NCA0OC4wNEM3MS4yNiA1MS45MiA3OS4zOSA2Ni4wNiA4MC4wNSA2Ny40NUM4MC43MSA2OC44NCA4MSA2OS41IDgxIDcwLjZDODAuNzEgNzMuMjQgNzkuNTQgNzUuNjUgNzcuNjMgNzcuNDFDNzUuOCA3OS4zMSA3My4zOCA4MC41NiA3MC44MiA4MC43OEM2OS43MiA4MC43OCA2OC45OSA4MC40OSA2Ny42NyA3OS44M0M2Ni4zNSA3OS4xNyA1MiA3MS4yNiA0OC4xMiA2OC44NEM0Ny44MyA2OC42OSA0Ny41MyA2OC40NyA0Ny4xNyA2OC4zM0wyNy45OCA1Ni45OEMyOC40MiA2MC42NCAzMC4wMyA2NC4xNiAzMi42NyA2Ni43MkMzMy4xOCA2Ny4yMyAzMy43IDY3LjY3IDM0LjI4IDY4LjExQzMzLjg0IDY4LjMzIDMzLjMzIDY4LjU1IDMyLjg5IDY4Ljg0QzI5LjAxIDcxLjI2IDE0Ljg3IDc5LjM5IDEzLjQ4IDgwLjA1QzEyLjA5IDgwLjcxIDExLjQzIDgxIDEwLjI2IDgxQzcuNjIgODAuNzEgNS4yMSA3OS41NCAzLjQ1IDc3LjYzQzEuNTUgNzUuOCAwLjMgNzMuMzggMC4wMSA3MC43NUMwLjA4IDY5LjY1IDAuMzggNjguNTUgMC45NiA2Ny42QzEuNjIgNjYuMjEgOS43NSA1Mi4wNyAxMi4xNyA0OC4xOUMxMy41NiA0NS45MiAxNC4yOSA0My4yOCAxNC4yOSA0MC41N0MxNC4yOSAzNy44NiAxMy41NiAzNS4yMiAxMi4xNyAzMi45NUM5Ljc0IDI4LjkzIDEuNTQgMTQuNzkgMC45NSAxMy40QzAuMzYgMTIuNDUgMC4wNyAxMS4zNSAwIDEwLjI1QzAuMjkgNy42MiAxLjQ2IDUuMiAzLjM3IDMuMzdDNS4yIDEuNDYgNy42MiAwLjI5IDEwLjI1IDBDMTEuMzUgMC4wNyAxMi40NSAwLjM3IDEzLjQ3IDAuOTVDMTQuNjQgMS40NiAyNC45NyA3LjQ3IDMwLjQ2IDEwLjY5TDMxLjcxIDExLjQyQzMyLjE1IDExLjcxIDMyLjUyIDExLjkzIDMyLjgxIDEyLjA4TDMzLjQgMTIuNDVMNTIuOTUgMjQuMDJDNTIuNTEgMTkuNjMgNTAuMjQgMTUuNiA0Ni43MiAxMi44OUM0Ny4xNiAxMi42NyA0Ny42NyAxMi40NSA0OC4xMSAxMi4xNkM1MS45OSA5Ljc0IDY2LjEzIDEuNTQgNjcuNTIgMC45NUM2OC40NyAwLjM2IDY5LjU3IDAuMDcgNzAuNzQgMEM3My4zIDAuMjkgNzUuNzIgMS40NiA3Ny41NSAzLjM3SDc3LjU2Wk00MS41MyA0NS43TDQ1LjcgNDEuNTNDNDYuMjkgNDAuOTQgNDYuMjkgNDAuMDcgNDUuNyAzOS40OEw0MS41MyAzNS4zMUM0MC45NCAzNC43MiA0MC4wNyAzNC43MiAzOS40OCAzNS4zMUwzNS4zMSAzOS40OEMzNC43MiA0MC4wNyAzNC43MiA0MC45NCAzNS4zMSA0MS41M0wzOS40OCA0NS43QzM5Ljk5IDQ2LjIxIDQwLjk0IDQ2LjIxIDQxLjUzIDQ1LjdaTTc3LjU2IDMuMzdDNzkuNDYgNS4yIDgwLjcxIDcuNjIgODEgMTAuMjVDODEgMTEuMzUgODAuNzEgMTIuMDggODAuMDUgMTMuNDdDNzkuMzkgMTQuODYgNzEuMjYgMjguOTIgNjguODQgMzIuOEM2Ny40NSAzNS4wNyA2Ni43MiAzNy43OCA2Ni43MiA0MC40MkM2Ni43MiA0My4wNiA2Ny40NSA0NS43NyA2OC44NCA0OC4wNEM3MS4yNiA1MS45MiA3OS4zOSA2Ni4wNiA4MC4wNSA2Ny40NUM4MC43MSA2OC44NCA4MSA2OS41IDgxIDcwLjZDODAuNzEgNzMuMjQgNzkuNTQgNzUuNjUgNzcuNjMgNzcuNDFDNzUuOCA3OS4zMSA3My4zOCA4MC41NiA3MC44MiA4MC43OEM2OS43MiA4MC43OCA2OC45OSA4MC40OSA2Ny42NyA3OS44M0M2Ni4zNSA3OS4xNyA1MiA3MS4yNiA0OC4xMiA2OC44NEM0Ny44MyA2OC42OSA0Ny41MyA2OC40NyA0Ny4xNyA2OC4zM0wyNy45OCA1Ni45OEMyOC40MiA2MC42NCAzMC4wMyA2NC4xNiAzMi42NyA2Ni43MkMzMy4xOCA2Ny4yMyAzMy43IDY3LjY3IDM0LjI4IDY4LjExQzMzLjg0IDY4LjMzIDMzLjMzIDY4LjU1IDMyLjg5IDY4Ljg0QzI5LjAxIDcxLjI2IDE0Ljg3IDc5LjM5IDEzLjQ4IDgwLjA1QzEyLjA5IDgwLjcxIDExLjQzIDgxIDEwLjI2IDgxQzcuNjIgODAuNzEgNS4yMSA3OS41NCAzLjQ1IDc3LjYzQzEuNTUgNzUuOCAwLjMgNzMuMzggMC4wMSA3MC43NUMwLjA4IDY5LjY1IDAuMzggNjguNTUgMC45NiA2Ny42QzEuNjIgNjYuMjEgOS43NSA1Mi4wNyAxMi4xNyA0OC4xOUMxMy41NiA0NS45MiAxNC4yOSA0My4yOCAxNC4yOSA0MC41N0MxNC4yOSAzNy44NiAxMy41NiAzNS4yMiAxMi4xNyAzMi45NUM5Ljc0IDI4LjkzIDEuNTQgMTQuNzkgMC45NSAxMy40QzAuMzYgMTIuNDUgMC4wNyAxMS4zNSAwIDEwLjI1QzAuMjkgNy42MiAxLjQ2IDUuMiAzLjM3IDMuMzdDNS4yIDEuNDYgNy42MiAwLjI5IDEwLjI1IDBDMTEuMzUgMC4wNyAxMi40NSAwLjM3IDEzLjQ3IDAuOTVDMTQuNjQgMS40NiAyNC45NyA3LjQ3IDMwLjQ2IDEwLjY5TDMxLjcxIDExLjQyQzMyLjE1IDExLjcxIDMyLjUyIDExLjkzIDMyLjgxIDEyLjA4TDMzLjQgMTIuNDVMNTIuOTUgMjQuMDJDNTIuNTEgMTkuNjMgNTAuMjQgMTUuNiA0Ni43MiAxMi44OUM0Ny4xNiAxMi42NyA0Ny42NyAxMi40NSA0OC4xMSAxMi4xNkM1MS45OSA5Ljc0IDY2LjEzIDEuNTQgNjcuNTIgMC45NUM2OC40NyAwLjM2IDY5LjU3IDAuMDcgNzAuNzQgMEM3My4zIDAuMjkgNzUuNzIgMS40NiA3Ny41NSAzLjM3SDc3LjU2Wk00MS41MyA0NS43TDQ1LjcgNDEuNTNDNDYuMjkgNDAuOTQgNDYuMjkgNDAuMDcgNDUuNyAzOS40OEw0MS41MyAzNS4zMUM0MC45NCAzNC43MiA0MC4wNyAzNC43MiAzOS40OCAzNS4zMUwzNS4zMSAzOS40OEMzNC43MiA0MC4wNyAzNC43MiA0MC45NCAzNS4zMSA0MS41M0wzOS40OCA0NS43QzM5Ljk5IDQ2LjIxIDQwLjk0IDQ2LjIxIDQxLjUzIDQ1LjdaIi8+JiN4YTs8cGF0aCBmaWxsPSIjMjYyQTM4IiBkPSJNMjIyLjE2IDY0LjM1OTlMMjIwLjk1IDY3LjczOTlIMjIwLjUxTDIxOS4zIDY0LjM1OTlWNjcuNzM5OUgyMTguNTNWNjMuMTI5OUgyMTkuNDlMMjIwLjczIDY2LjU1OTlMMjIxLjk3IDYzLjEyOTlIMjIyLjkzVjY3LjczOTlIMjIyLjE2VjY0LjM1OTlaIi8+JiN4YTs8cGF0aCBmaWxsPSIjMjYyQTM4IiBkPSJNMjE3Ljg1IDYzLjgxOTlIMjE2LjU4VjY3LjczOTlIMjE1LjhWNjMuODE5OUgyMTQuNTNWNjMuMTI5OUgyMTcuODVWNjMuODE5OVoiLz4mI3hhOzwvc3ZnPg==;" vertex="1" parent="1">
          <mxGeometry x="410" y="490" width="207.86" height="75.5" as="geometry" />
        </mxCell>
        <mxCell id="5oMmjMAf5zsthHY-WXvj-19" value="Dashboard" style="shape=image;verticalLabelPosition=bottom;labelBackgroundColor=default;verticalAlign=top;aspect=fixed;imageAspect=0;image=data:image/webp,UklGRnBUAABXRUJQVlA4WAoAAAAYAAAAWwMA5AAAQUxQSMcwAAABsIZt26I5zf28M/Nt3ICEAEEjOCS4S4IWCRS3GtLipHiAEpwGC95A8RCk0OLuJVhwjUKIoNHNJvvNzPvcP9j93ndkv3CwfyJiAlD4cPCxYx9/Y+LLD113aD8I2pPKRmNms9YpZ/ZpR7LR41Q6Nt/WW9qHdBxNpcd5fxPTDmTQp1R61cc7mXYfm/6k9P5BP5H2HZsttszwy55G2nOsMlM1C06oBO04OkygMlN7B4J2G+YkWmbctDOkvcaqiy0z/1SCdhrhaLrM//DlL6suS/8M0z5jucWWtdondgwF6HrUl9Ra+B7CdhnmONY0b28IWmy4jLaWxu0g7TEqT1BrmD8EglaDk5nWkFyBoD1Gt2bL1qt/hKDGDvfRtsa3ELbH2IS1vIsANa+ZpjXM6xK0w5BDa6n+Faa2Dg/RtrZwY0j7i+C8WhavKVKbOYZpa4t3hWmHcUkti8IAjrvUsuSI9hjhFbUshNN2NR3ZHiMYVUtjL+Mgh9TStFd7DHN0LUuHQWqr3EDbWuO2kPYXGFaD3guD2nvOsdra/BVNe4wVmLak98Kg9mAEU7Y+CSHaYXZ4n/oLfRgGjlvElq3r3QjaYwSX0ZLUcWLguMPPqjUsOQim/cLye/79X4+/MXHixOfuu/zIwUFNGPALHScGtS93baKsdQYCtE8Md7z+S2XtC5/864o1VJ4ldZwYtFy5YtxZJ132XFVZczK6ncIqF39Hr+mzexlpAVszfUgMWo6upaXH73sbaas6HXTpP0Y5Xnjp39eE+VUpxFE3XHaF66XXrAn51WONOxL6n3K4kV9U7v0PDFqOrqWlx3gEDNpmwfIPM6GjcvYwBL8qdcB/mdJRY+6I4FeOzqNjZvvpthBAeoRoNbqelj4/RIB2B7vOYOZ2bBdBrdG1tPQ5Z3WR9gbRRco8Th4CaS26npY+Fw+DoJ1Br1eZz/SfMK1E19LS54K9IGhnsPqXzKe9FgYth9fS0uf320DQzmDV6cynvR4GLZsRtPSoT64KQTuD3lOZT3stDFqvnDZX3WYeBoM2/TdJ0avMp70RBjX3OucLai36/uGRoI3/TdJNzKcdA4OWZblfALLFBY/P+UXz9EePXxuCNv+3SHtoPuyNELQcXv02zC9aNL36rYB68TdIy/3IXNoxELQcXsv4XEhrdeVvkG6l58bX7xl9xa2PzWzJjoGg5fAqWi5cVaQ9xMbWS9PNO1XQcr8zPybtGAhaDq+lkvogTHuIR+mxetnyqFkOmDQGgpbDq6kkuXQwpP3DBurhw43gHApaDa+m8pd6P0z7h1vo/mxncasxvI7Klpv6SruHzgvdHgkE/sOrqWw1ORumvcOhdP6oo8B/cB2VNX6OoL3DA06NayDD4J9U1to0QKR9Q7DARc9HhsEltKw5PhmmfcOGdJ3VIQszykUfRtC+4VgXvQSZrhQ78Ov2DmNcbP9swkeptTX2Mu0bnnGZBMnEnExb25LBkHYNn7ncg4w3YFpb8/B2DrMd9KysurhU/wzTrmGxy1+zalhia4tPbF9xWGY/uvy9ncMil+Oz6pA6VI9u5zDb5aKsujOtrfkASLuG9x34YFbb0ta2dOd2Dk+4/ADJxJzr0rR+O4crXewQZBq9Sq1tAQK0azjChbdmsx4ta3+nvcNAp8W9sghuptZm/wXTvgHfuOjNWQy2lrVXj4K0c7jdhem2/jq8S9eF3Q3aOezmxJn9xFNwPdXlGQTtHcIfnPhxN/FizqLSMT4Gpr0DLnPjl/29hPe6/djRoN3DSlU3/niwD2xJ65BeinYQuM0D+cIWHiqf0HFhb4N2ECs3+SA/OGlDcZDjqTXZa9EuAqP8kJz/2SsjIK2hx+Lapnc0aBfR8Jkvkgu71hLcQq2hug/kV5RO/TfZdtjv9hm6/eCBnSFtUtBnw6122n2v3XfccoPepv4QdNrj0AP9/v7w1fPVecA2+x10wJGHHrjvLtsM7CZFEmx5oPMBB6+cVbf1h+174IEH/m6nAVFt2CL2Z4+HtIbBtK3pgzD49UPQeYs///OpLxeyVm386qnRR2/RFdJGyBr7nX3vO3MS1hrPnHDn6XuvXEdIiPH0XeXwfAh67n7W3RMb6bh02tPX/m3bjsUwuF/parl/Bn2PuO61eawxnfHEmVtXWsNp/vgJTA3RBGorn3Ux+JVD0HOf0e8spdKrsvm9a/ZbDlJyZqPT//MdfSu/HX/yOqY+CHEXfScc1QGSmTTscfX7Kf1X37t+387ltv4ln9Br4717Ri3JeH/JNpDW5A+0Lf24puBXjjVOeWUplZkqm18/bQCkpARd9hw7k8psldNuHNYR0taFuIO+E17UAYJspcM+9y1g5rr02ROWK6vOx37MDGe1hIbnvem9taDrvJYad8avGYLOB72hypx+eFJfmBIym17/PZV5VM69Z3Np20L8m74TXtwBgiwFa136I3Oq1Uf3Ckuo+6i5zHRJK+j+pi8u7lFLcBWVZOPuEPyKseG4Ripzq2x6YBOYUhH0PHEKlfm1/OzoLpA2K8Tt9J1wdCcIMjTY+smUOVZOPaFTuUjlzLnMuAZ0ec6XHQFpDQNpyXnbQfArhSDY5RUq867/3z2AlIXBaqN/pjLflnNG9YG0TSFuslQ/Ca/qBIF/g62fs8y56g/ndioPwZafMPNaEP3TEyfB1BC9SE7eGIJfK7DFy0xZQOVHe0BKwaD3mCYq869cNHoFSBsU4oaUSq8Jr+kMgXfBao9YFlA544igJKTjDSlzBfxlsZ94GKQ1HMTxXQX1bJsmGPICLQuqfG0rmMIJup83j8piWv74986QtibE9SmVXhOO6QyBd9Nw7iIWVPn2RuWwyRfMowMGvOlFH66pw58g+HVC0H20VWVhlbx9BZhiGez8KS2Lm3LyrpC2JcTVKZVeE17fBQLfBpt+wgLb+MIOhRP8oYkFgBw8wwOX9K2l/m3DsOcUpiy05ayDYaQ4BiveRSqLrJb39IVpQyJcWqXSa8IbukLgO8DZS1ho5YdrF0zkestCAF1On+1mL4D82iHodg1TZcFVObY7TFEC7DqFKYtuOX1XSJsR4ZIqlV4T3tgVAs8iyz3PoqttPFCKJGacsihAh8NfUgd+DeOn02b7nXLluNcmfj79h/nz582d9sEL468+ed91w2Uwgw3fYsoSTPnRlggKIQguSqgsvlodWYG0DREuaqbSa8Lbu0Pg2WDIJJZgyn9WiiPhE8ytFwArHfPodzUlwyEu3fY458GvUnqufjbu5C0blq1w6CJalqLl/L8gKIDBqk8xZTkmfLAvTFsQYVQzlV4T3tEDAs8BDp1LLQFaju9SFME9WrRf9tvz+Cv+dd9Dt15zwcFDuqDmDjtf+laizHrJC2cPgSwbCXAqrbIklXohRPIWYL23mLIsU767Hkz5RThnCZVeE97ZAwLPIU5ZTGUpWr7WuxiCyy3LwL8ZQcucTrt0MGTZR9DlOiYsT7X8VydIvgLsO5OW5Wn59Q4wZRfh7CYqvSa8qwcEnkOMXEJlSSrf7V0EwfCEpYY+cW5ITrl4fciyjaDHWMYs1ZQP9oDJU4hD59KyTC3n7QlTbhHObKLSa8K7e0DgOcSVMZWlqXx7hSKs9jNLLrqbmh9S39hfZBlG0PN2JizZlA/1hMlPiMPm0rJcLRcNh5RZhNMXU+k14T09IfAcYuRSKktU+Xr33AmeYtlhK9o8kfx6RGdZVjFY7m7GzDr9+n9XHH/AtkOGDB6y9f5/u/y/09KsmPLhnjB5CXHEIlpmq5z3xi1nHTlss8GDh2y+yx/PveOdRmo2tFy4F0x5hThxEZVeE97XEwLPIU5spDJL5cxHLz9ur8022XiTTbbc46gzb3nhe82Glvd0zJnBYUkprXURpIYOH1DzRc69oIsskwg6jWHMbCdfvc8KENQsWH6vayZTs2DKOyqQfITY9ztaZqic/8hxaweoXVAZcuqLS6kZ0PL7HWHKKsTxC6n0mnBcTwg8Bxg+l0rvqosfOXxlgaNg9YNum50FU54f5SvAVJbQyrem1a0hrZnjaPNGzjkmMMseAnMBY/pXfn3hIAg8D7rka1p/ank1RPIQYvtJTOldufg/u3aAwKeg52GvJ1RvTPnlEJhyCvHXBVR6Tfjo8hB4NljnGyp9W75+SEd4Fmx160J/TDk8Vwfgb2kWP0378KNpPyzIXcOZi5V6Vy3o2VgActKBMMsawN+YqC+lvjI0EIF3Qbjb61RfVOVIBDkIsO4EpvRt+e1Zy0Hg36D/DQuovpjw1f4wZRTiuAVUek34+PIQeBbTZSK9Wz44GJlKtzO+96Z2Yf88HYhp9PzVDUds0AktR2vvP/L+2fn53df85aIetYQ3UgtAvjgIskxhsEcTLf0q9enBMMhYsMXLtJ5oOf9QhJkZdL6fCT1bzji6AwTZGix/xSKqJ8a8pSukfEIcMZdKrymf6A2B7wjj6Nvy7S2QuXQ8v8kTlW92zdF+ezd7mXz+WnCXwee8bvOw3L+pLaQjIK1hA9pCcPEZMMsQBut9zJR+lR/tCINc7vEFUz9M+dEQBBmJwSW06ke56PwuEGRv0G+cpfrRhKcCUjYhDvuJSq8pn+gDge8QRy+ielG78A8BcigY9K4npjwrzIvyxjfVw4R9Avhe48qfspL9f1a2+gVMDQ2vUwtBvrI6ZFlB0OsuxvSqXHROKIJcCrpcWqV6YcKHusFkE+IPS2jp1fKJATDIZ4DdvqL1QtXqXjAlE+KQn6j0mvLJPhD4NlhrOpU+Uz63BnJqgn/Gfpgm6+bF75R9BVl2ODSbTjdT2Xq8M6Q1OZy2IGw8A2YZATiWMb1avrUhAuTWYIcvmHpRy5EIMwmw4btM6VO5+ARAkFdB19tI9cGEbwyEKZUQB/1IpdeUT/WBwHuEp+g35WUdkVuDYd/5sXyuc1HUXtkJBV5/EmvWB2tB158LQ32kwSwTBNjqO1ofSt7UAYIcG6xwH1MftJyxK8IMBLiVCX2mnLgJDPIc4Nj5VB+s8pIAUiIhDvyBSq8pn14RAu8h/riA6kFT/ZNBjgXrfuOFKX9fEF2wJ4r8+0atjU0r1hJeSVsU8qM1IfWfwQrjGNOjcvHfESDfgmAUrXpgwv/1gvEX4ZiE6iPlQ31hkO8Qu0yj9aFW94UpjxD7f0+l15SvrAyBdzGdP6XSXVP+HvkWWWOSF9XJPYrxyUAUOLiCSsf0XEhrGFAkzt4Rpu4THMlYPVh+fwhC5F0ExydUD6o8HZG3AANeZ0J3TTmmAwR5D7DeRFoPTPj86jBlEWKP2VR6TfnKyhD4j3BN4kPTdG/kXaTvVz6Y8hiTP+X4TihwxweodJ4OU0PlGWpxuGQEgjrPYJ13mdLd8rsDEaKABn9YQnVjyokbI/AVYhRTddOUV1cgyH+Atd6k9cAqT4LXQoTYbRaVXlO+1g8C/warfU2le8L9kH/Bhj/6UJ3VM3fKcRUUuPsb9BnvCWkN+9IWiPE/EdR1ApzBKt0t5/weIQppcIylujHhVQjET4jtvmJK94TXGAiKGGDAO0w9pJy0EUwpBNhlFpVeU77WD4IMI9xs6THhqWEBYHBokwemPEJypry/ggJ3e51+/wdTQ6dvVQvE5HoE9VyAzWfSuikXHI0IxRTBGbTqZvn1Lgi9iMFNjOme8N+dIShmgC2+oHVjlecDUgIBhs6k0mvK1/pBkKHBwBlUt4Q3dkYhA1yZeFC+2zlfyocrKHC3N+h56apSQ3A+bZGY3oagfhPgAlbprLQjEaGoAoxm4saYN8CIjxC7fE3rlvCJlWBQ1Aj7z6F1s/xmUwTFC7Dt11R6TflGPwiyjHCD9WD5UV9IIRDgQw9MuF2++GV3FLjHu/RtL4S0hpVtsWjvQFC3BdjsW1ofdyCQwsCg9yOM3SynDUXoQQyuZ0znlF9siQDFjXBmQnVilecDUrQAW0+n0mvK/68KQZYivaZQ6aoJt0RRDYYu8mB5T0OedPE6KHCPd+h/hpgaKg9TC0V7G8I6TYDzWKVzyld7w6DAAbb6iqkTE46BEbcQQ6fTOimrRyBEgSXA3bRultM3QVCwAFtOo9JryvfWgCDTCOcv9RDz72FhEOI+dWMa986R8hApUOUFZpjsD2kNQ2mXvDfugqP22HjNNXr167/pdvufcctz31Jzw+qFCOozg42+YOpkOXtfhCh0gGOo6pTys60QuAUYzZjOMa8BpEgIMGgiUyc2cwQghQqwxTQqvab8YE0IMpUQn1DpavnpipDCiOnzgw8eY3KjvD1EceUWZvosTA3R0YNDeFz5wGs+oOaDi4+EqcsER7NKVyWvQoRiCzrexdhJU56HyCnAhu8ydUr4xtoIUOwIxy6iOiV8vT9MkQJsMIlKryk/HABBtgEOmOsh5h4ocoBbUjfl653y07gyiiunMtvm1aWGLFc77TWreeDcbWHqMINVn2bilPLtVWAKhhDDZtK6MOGLq8G4RDiNVl3U8liEKLgEGM/USWMeVKgAG3xOpdeUHw2AIOMKHqF7yid6QgokGDTPjSlXzYvyVFOgPdOM7KUweQDQ75I51Ow4cwCk/gqwJxN1US49BRUUXQwuYuykjP+MyMGg52NM6Brz/u4wRUOIodNoXRjz7l6QwgRY73Mqvab8aAAEGRus+jXVKeZQFDvEo16OMznhFx1R3PUbmfUskxegcsTH1Mz4YRTUXYLoClbpmvKlzjCFQ4BNP2Lqwpi3QaS2EHt+R+tiueQAhCh+hFs9WP6wFYKiBFj3Myq9pvx4IARZhzh1sVvKp5eHFMpg30Y35VMd86E8SIrT8VNmvmQrSF6A4NCvqFnZsQjrLYN132fqolx8AiKUYIB/MHZK+cEQBC7/YELXmHd3gpRAiB2n0LqwmX+DFMRgrQ+p9Jryk0EQZF7B83Svcm8UPZRZbkzt8rlQndERhZWrmfmrG0KQ5/CYuZoRG/eDqbMC7MdYXVK+1BmmHLb4jKmLkscjqslgpafdLJcciBBlGOHfHhL+Z0WYQhis+SGVXi0nrQdB5garfk11sZy0CqRouMt64LBcWJ5mijOUWX9/EAR573MvbTac3ttIXSXocDWrdFTakaigDEVwFasujHkHRGoJsc+PtC4xH+0NUwoh9p1N62I5b1sERTBY/X0qvVpOXg+C7EMct8gt5sgKim4wvNHN8uIoF4t7obA9Z2akj64gKOKuM1Uz4ZMI6yqDgROYuqT8cB0EpYAQe8+ldUn59voIaolwDhM6asoTEKEUxeAJpi5s5p9gCmCw+vtUerWcvD4EOazgATprzA0gRROz/M9uytc65UB5c1AYGcdsF/8JgmKu+DRtJktORlBPBRhmrbpY3o4KytGg10OMXSwbD0VUg0HHcYxdUk7cGEE5oIIRMdUl5s1dIbkz6PsWlV4tp6wPQQ4lwudUl5Rv9ikeInzixjTpkQPL3VDY3ZjttI1R3Ogc2iw4o5eROkpwEpvpaPnjYYhKAhFOZaIOjHlZTQE2+5ipS5XXA1ISATb6mNYl5fvrwuTNYMUJVHq1nLI+BHk02Hy2W8yzKyh+iLHWLeFGeVjSuTCVz7J5qZcUCNi3arOwYxHWT4Ll7mbskvLNFWHKIsQO05i6JHykO0xrEY6sUh1UeSQilKREGM/URVPuhiBnBitOoNKr5dQNIchliFMXu1W5KaR4Af621C3lHyQz5X/CoshJzFIfiQTF3naeVW/KnzeDqZsM1pnI1MVyLBpQlgY9xjN2SfnBEAS1/IMxHVO+uyGCskAFpzRTHdjMYyH5Muj9fyq9Wn47GIJ8VnAvnS1nrFoGBns2ulleXcnM8o9SlF5zs9A7RFD09Weq+iL5MsK6KcBOzWodlAuPRVQaCHEOqy6Wcw9A2Iogusst5u0VSGmE2HoyrUuV13aE5MlghTeo9Go5axMIcjOR6pLyoZ5lIFhvvpvymY6ZpVwXBZXrmKH+G4Lir/ejVX+NRyGonw5nMx0tPx2MoEz2b6R10JRnotJKgIGvM3EbgQilKVJ5galLwudXh8mRQfeXqfRqOXtzCHIqssI0t5inhihBCbr+5EG/7JKZjTsXZUCaxaMiKMMhC6x646cI6ySBXMiqS8pnYKQ8AmzwDlMHxrwRgbQUYtjXTB0sf94LYXmgAbfSulh+symC/Ai6PU+lV8s5m0OQ1wA7fe9W6unS7lkp3+9QlFuY4SuRoBy3iVN/jUcgqJd63sHYxfI2NKA8DbqPZ+z2UBeYliIcvpTWIeU7GyAokQpOa6Y6qNVhORLp+hyVXi2/2wKC3IY4ZmGbkrBfdndFBVl+aQaTuwhKUg5j4o3vIKqPDFZ/gYmDsnkEKiUiAS5l1SXhq2u1VsFpTNUh5vgeMCUSYs8ZtA5s5kH5EenyLJVe1S7ZDoL8Rrik2sZsnpXlyKAgF9L/4o1Qng3/ZOpJuWBvmDpp46+YOljO2hdhiSDC35ioQ8ovtkHQUogrWKVjlVfCSIkEGDiRqdsIQPIh0uFxeq/yeOS5gnFsU1Pult2JphidfvJn/wIpD3R7mdYPyZcR1UUBtl9E6/T5pgjKJMQBS2gdLH8cjrAFAW5n7DYCEUrUoNNLblWObsiJmIbH6F9t05aQ/DTgDWrbcqhkdpQU43h613sgKNOBTan6Uc7bDqY+2o2pOqR8sy9Muew4namDculRiFow6PaQkyqPKhdEeISJS8zbe+RDTOW/zDLhU30huangU9q25XiT2X4o5pf+5vQQlKr5CxM/pN6NsD4aziqdnjVGyiTARu+5KU+oYeWnmThYzt0bYak04DamLgn/0xcmB6GJHmW2VZ5uIDmREF9S25bTg8yGFmNTek8PRsmgy9O0fpSzuxmpgwyO4FKXhP9FWCoG/V9m4pLwbFRaCLDOmx6+2al0rqKq00tr5CIyDzBjTdMd8iPLT21bLM8KM9uuGNf6exKCsl2HiR+y6QQEdZDgeDa7jUcDyqXv406s8uIahnzA1CHlZ1sgKJUKLiBdUr63Tg52Qjie1GyY8vVVIPkwWOubtuaccgq+89bcH+XbcBVTT3wNUR0EnOyW8o7S6fkgY7fLa9jsYw/vbVQ6f696+Gj9HOyMB0ll1lWeF0Fysu63bc3IctqVvnUspHywysJUvSh/WE2kHhrh49+l0328jysRtbLVZx7e2aB0RjR7+HSDzBLucAOpzFwTDs3NhjPbmrPL6W5vS1YRlHB4BlMv5JLTENQ9Apzp47bS6TbOx9UIWwix7ZdtwSlLPXy5UVZkMq2RyhymfH91SD42mdW2pDwpKKNggS+9AaWEvk2p+uELiOqhs32MLZ0u9/q4tobtJnl4e/2SiXDyEg+TB2eX35iXd4TkIMDms9uao00ZbUHfyUCUc8M1TL0o53QzUged4eP20uk2zsdoRC0E2PoLD+9sUDIVnLrUwxcblYfG3Bd5NNi0zdkPZXSOt2cg5YR1mXghF+6PoN4BMMLHv0unx3gfV9Sw5WdtwYhmD59sUB60nDYIkofBs9qWhJuU0vO+0r1R1l0fpfWTXo+wDjrZx93oUDLLPezjMlRa2exjD+8PLp0zEw8frFcijHljN0gONpzZ1vQto4YmX99CygoHM/HDiajUPYLj3BI+jErJ9HuaiUvMUTVsPNHDpG1K52J6eHtQISw//JnqgTEPRPYG637r1szBELSJ5bEjPeuYEuu7NFUfyjk9jdQ7AQ7mUrcnEEiZBFj7DSdNeUYN/V9l4mA5exeEpdKAG6h0TPjsakVI+GrnC5TqwfK79SHZrTTdrcqhaCPLY6SvdCeUd5f7af3M3w2m/tmbsTqkfLEjTLls+hFTF/I4RC0Y9H7cQ+P+pXMPU5eYD/QuQMLn+yF4yQsT3tMLkpEEHSf7OKDeGu/rR5HywkFMfJBLz0BY/wxT6/beWgjKJMTu39E6WDYeWkPHcYwdNOUxiMpEAjzBxO3mrpC8JXyhHyLs+A3VA2P+EZlH+Nwt5vGmzvrYk96LMlvNl96DqP7Z+idaB8sp2yMskwhHKNVp9u8QtiCCW5xY5bnlYrDCG0xdqrw0zF3CF/pBUMFFMdWD1QWDIRk14H23hFd0rK/CZk/2r6XW6yOqF36ASr1jsN6HTJ1+OhxRuYxgTMeUH2+GoAVEGMWq2w2AlEiAIZ/RujTzbxDkK+EL/SCABPKiFyb8b29INhU8TueU43tA6qlB9JxsgDLveBNTH8qZCOufVR5n4qDkRaiUiADXs+qS8Pl+MK0dT6sOCZ9cGaZEIhz6o1uVwxHkK+GL/SAAEGD7b6keWOUpAskkwpiU6mD5zor11X6+5kHKTA5j4ueHVUXqHEGXmxg7MOEDpWKw8pNMXGLeF0FaCvH7+bQOKb/YEkGJVDCKVAerTTvmLOGL/SBosYJLE6oHTeNtMgpx2mInTZvWrK/O8fVKuWFjxn7m7whT9+AMNrukfK0nTHkE2OpLpi5VXo0QLQfY+gumDsr4EESlMp4pHVN+uRFMnhK+2A+CliWQV7ww5UsrQ7IIMPxnJzZzs/rqOk86ttQEfZn4IBsPQ1DnIMBwVl0spw9DWB4R/kSrDqo8EVErBis9zcSBVV6IoDwMVnrLLeEjfXOV8OV+ELQeYPsZVA+MeW4EycBgwAy3mEcL6ql7PdmzSg1YbirVy5JT66GtfqR1UNpzUSkNMRjNKh0tZ+6BsBUR3MTYJeYjK8CURoh9ZtO6VHmxgeQn4curQ1BrBZfEVA+acGdkGuEzt4R3doPUUU95Sg9AuXd7mtZLfBnCesdgrVeYODDlw4ikLAzWeIGJS8o310bQCio4nYk6pJy2A8LSaMClpLo083AEyE3CV1aHoGYJ8YIXpny3HySDCv5LZ8spq9RVb3lKNi+5zncx9WL/hajeEXS6nlUXy08HIyiLEPs30rrEvDeEtBZiv7m0DprwVERlIWh4likdrTbtmKOUE9aCgWOAbWdQPTDmRR0g/iJc2Ex1YJWb1lVTfA0suQ7XeeK99Q8MjmSzi7J6OiolIQaXsEpHTXkuKmg9wKA3mDow5gM9YEoixB7f0LokfGVNmLyknLAWDJwjXBxTPWjCXZFhgF1/cIt5bgV11FxPcV8pt8qFvh6pgwJs8zOtA1M+hkDKIcCg15m4WH63N8IaRHALYxfL2bsgLIkKrqaqS5WXR5CcpJywFgzcJcQLXmg5eS2INwk6THKznNAHUj8t8dWp5MJTmfh5pg4y6PckExfLb3ZDWA4R/kSrLglfXA2mBkQ4gVYdWOWlMFIKBqu9xZRuByJAPlJO6A8DnwG2+YbWA2Ne2wXiCxU8Qfcqt0RbWBrNvqTkghN9PVsHCXAOqy60vAWVUjDoNo4xXWNeh0BqCbHdJKYuCd9eH0EpVHDSUqpLyqlD8pJyQn8Y+K3gopjqgTF/D/8hTm+iuiS8plMdFftqKLlwhK9n6iAEGJpYdUn58YYIyiDE8IW0LpaNhyJCrYIO9zF20ZSnICwDkeAJpnSNeUtXSC5STugPA88S4nk/lrPWhvgyWOdbN7Vz14DUTUt9dS+56Cymfp6uhwxWfYaJi5JXo1ICgug2xnRN+MqaCGpChBNp1YEJXxmAoAQi/HkB1anKgxEgDynf6g8D7wG2+prWAxPe3gPiCRW8RveYp4aom+b5WqHkKuf7eqQeEmAEm12Y8qP1ERQvxD7zaJ1ijkaI2gNs8TlTF015CsLiiQRPMKVrys83hMlDyrf6wyDDCkZVqR4Y8wh4D3FWE9XF6sxVIYUTbNylTfjWU7IWyr3DaF/31EMIsO08Whcq/4WocAbdxjGmq+WPw50E+DdjF6Z8ZwMEhavgxCVUpypHN0BykPKt/jDIUkI878fq3A0hngzW/taNMU8PUfigw/QFF/RoAz7zlO5Qcl3up/Vib0ZYBwm6j2XsZDl7H4RFC/EXqjrFfKgLjAMiHL6Y1oUxL4VIwQxWncCUrmq5KwJkpzF3RoBsA2w+ndYDEz60PMQPKniS7pouGQQpWIDRKXXhNX1K73lfh0NKrftrnuLL6yIE2JeJujDlUw2QYgVY7x2mdFXyeERwNejzFBMny59+h7BgEa6jqlPMh1eEyceOmSHCeUupHhjzWPgOcPBcqgsTju0CKZRgo3kkqY1Xr1hyd3iyZ5fcclOpXpacjKAeMlj9BSZOSo5CVCiBXMeYzglfH4jACRFOp1UXJny6H0yhIhz8Ay2dqzwcBiUhIZ7zo7ZpU4gfCfGJB8bcG8UO8BZb1qV3rlFqF3nSsaUmWFETel10cH0EwR9ZdaLl9wciKlKAP6uqk6Y8DxHcA6wzgakTE14OSIEMVp3AlM4JX+9fHgiw2XSqB6Z8ZkWIF0S4sJnqZPnN6pACBbgoboXU6m1rlNixnjix1ICtGPtQztsepi4y6P86EyemfH9tBMUJsPO3tHRO+c76CDwgwjm06qTKvyIojhgZT0v3Ko+BoDQQYeRSqgfGPDOEeBHpNcUDU97fHVIYg6GLWLOm/92gtH7na2lUasHxTPx8v4pIXQTBn1l1o+VjnWGKEmDga0zorCkvQAifAdZ7i6kTLefsjqAwIa4k1S3lmwNhSkRCPOdHE27vCRGuSqhOjHlaiKKK6fMNXdWOX6+kNvSVbIoy7zSWqZ+ZiFAfGfR/jYkbleNCkWIYrPgoE7qnfHdDBF4Q4lxadWLKL7ZEUJAIZ1SpdK/yaAhKBAE2+YbqgSn/vwrEi8EqX/tgwgMKE1TeokfLmxtKqVPqyZ4EKbFen1J9kO+hUifB4GAm6kE5FkaKYND9biZ0V+XpiODXYLUXmbgx5TvrIShEiGMWUOme8PnVYEoFEc5fSvXAmKMaID4Q4ZqE6qZpvEtBAjxCnylPCEoJX3niU6W2NmN6tWMR1UuC5e9j7EYlbzUi+TPodR8Tekz4ZG8YT4jwl4TqxpQTN0ZQgBDHLaTSXVMeAINykRDP0qsm3BV+xXT9wgc1jXcvRIA7rA/VKd1RTg/5WtyhxIITmPhZfCyCegkBdl6i1o1UPtwNJm8GK/+PCT1aNh6GCL4FDeMYe2DKz7ZEkLsApzdR6THm2G6QkkGATb6m9UDLz9aA+ECIUxdT3ajp0r0LEOBOS58p90ZJneUr3RPl3fV/tD6UPw+BqZsEGMmqD1q+shpMvgIMfo8pfSa8ESLeEGKnqUw90PKnA2HyJQb/VCo9Ws7cEgHKBhHOW0r1wJijO0F8SIg36Tfl0UHeTPSo0qflIx3LajtfehuktFZNU/qZiRB1EwzWeIGJD1rOGI4gT4JDvqelz5RvroMAGYY4g6oeqEwviCA5MljlcSp9asJjICgfCfEs/cbcE34DbDOH6oMpb+6aK5EV36Bf27QGyqpj1RMXdimt4AQmXsiXEdVRMNi1WdUHlel1HSB5EXS/nqr0adl0FCJkadD5ASY+yJQvDILJTYB9vqal15h39SwlBBg8ndaH5Yz+EB+IcFVCv5bvb5Qjg6Gz6DflMaa08H9f9s+Qkur5Dq2feDTCekqAEYy9kMpPd4XJh2DPKUzpVVNeBSOZIMAWnzL1QuWi0yuQXBj0uVup9Jpy0hAEKCNEGLmU6oEJb+kG8SFB8JYnqo3P65AX03BtQr+Wj3dCeV3gi2+W1qaM6VO5YA+YegqCHncy9kMl/zcAQXaCdR6hKv0mfKwnDDIOcfgiWi+k5cd7ApKZoHLcHFr6VY33hUE5SYhn6DfmwfBrsMEsqhfSctJeJg8Ge02iZ9XZK6PEtvCWbIpy7ngHU08zEKKugsG67zH1QyoX37keTDaCAfcnVHpO+fHmCJC1BLiAVv2Qlm/uEkAyEXQ8cjKVvmOeBkhJwWDdqbQ+VH9cF+IDIY5dRPVDWr59UJSVwbavKH2n3AFlFvzoi49BSmkgE3oeh6jOgsFOP9B6IpXpczuHEF+Cjnu/kFDp2/KnAxEie0HlNqa+SMtPj+sF8Waw2nkzqfQe84bOEJQVIpyzhOqBCcf1hPhAhNuU/pXTTu2ShVSGT1B6T3liUGoY6y0ZjDLucANTT4sOQVBvwWD4UlVfJJXf3bxdCHETdB56w0xa+lcuPQ4h8mjQ6z9MvJHKxkcP6gXxIFj5L69UqfQf84HeMCgvCfEM/cb8MzyHeCIDUnXxY3/s5UfCHcb8xAwtr2tAue3qjY9CSmhAktKrck7XQMqqRJW8HJVaIPgjU/XX4rynzx/aE1KD9N3z7GcaqcxSyXMQIJ8Ga7zExB9JZfM7V+6/ZlhTZdChYz5OmG3Cl9eCQYnBYN2ptD7UNm4M8SJBxwlZ/FKTVy4+YICpRdBruzMfncdMLZ/qgpKLfvaW7oDy7XQfrR/ySUSox3A8U82mxUWfPHbb2BsuHzPu2Xd/pDJrVV4EIzlBgHXeZppFi8qmr166b+y1l465dfxLk5qpzDrlO+vCoNQQ4ewlVA9M+dgKEB8QrPRxRr9UNr79xLibLjvr0itu+e+EH5RZK//fC2WH673x80BKZycm9Nx4BII6DAL8hVazy7eS/4AR5DbAwNeZZpX7hG+uDYOSkxBP0W/MEw38ivT9MLu8K99dAeU32J89A1IyPT+m+pqKEPUYBPgLrZaJkiNhBDkOMPB1pqWS8LX+MCg7GKwzldaHpvHmEC8QrPxxuSjf7Y02AB9648LVSiY6nyk9x5fXa4Bgn59py0O55GQYQa4Nln+IaYkk/M9KMCg/RDizieqBKV/tC/ECkRUnlInlc73QJhzjj28FUirbM6Ff5Q9rQOo1GGzxJdOysPx2bwTIu6AyhqplkfD6LhC0BYjwOP3GPK8C8QIJGv5THpb3dUbb0PCDP70MUiK9p6h6Ip9AhLoNBms+z6QcUr6zEQLkXwRnLKWWgmpyqkDQNhisM4XqQxPuBO8BbkxKwnJUhDYCl/pjMgxSGp3up6Vf5YK9Yeo4CDr8g1aLp8pbu8KgkAG2+ohpCaScOhSC7MsCEU5fQvVAy49XhXhCgOHfl4JtOkDQZvRZ6o9zB6Eso3OZ0vvbCFHP/fJ3s2iLZvnDkTAoqkHv+6hatJT39YFB24EIT9FvzMs6QjzBYMC7xVN+ujayLRmMyYDTeks5yBFM6Vm5YC+Yek/Q60ZaLZTyibVgUGCD4dNoC2X5/RGAoC0xWHc61Qdj7oEMTXh+U8Esb+iMNmWVagZ8q4OUwu42pf+XEaHe++WuXzEtjuXMQ2BQbIPlbyO1MGp5e28Y5LM8EOGMJqoPy6lrQrzBYON3i6Scuh0yLxv5ZxZ8oaOUwO5JSt/KeTvDLAsIOp44h7YYynnnd4eg8AbrP8miWr64KQR5LRFEeJJ+E97QGeINMObIbwujTaM6oq1B9x+z4JvdpXC7xCkzfBoRlgUAQa9L5lPzp1w0ug8MSlGw20RqASz/vz3yXCYG60yn+mDMfZGpSOeRCwphkzv6Io+lI6dkwnd7SbHk4NjSu/LnTWCWEQBBl79Ooc2Xcs6FK8OgNAVbPZVSc6WMn95O0EYhwumLqT5Uvx8IyQAQ6fbXmbnT5rv7I5+lg+ijTDhto0KF5zBlhsk1CLHMAAg67PdqopoXZTrh4E4QlKrBetf/QM2N5axr+kPQZiHCE/Sb8I7ukCwASIe/fKQ5Uk6/qA/yWj7YJhsuOgBSmK730DLLz6JAliUACPqN/JKaB+XUC9aCoHwFHfZ6oomaA2XjI7s2QJD3cjFYawrVB2MegewNNr7m57wsenBogPyWkNyaDe2VFSnIkM+pzHLBnjBYxmhxtRNeXErNJv1w1MYiKGtBlz3GzqJmopx91/BuEBSwXBBhxGKqD7UL1oNkBUDCHa6aqhkpZ9yyRwNyXULoOi0b8sstIQUIT0ksM9X7EGKZBIJuw/7x/M9UP/NfGrVbTwjKPljn2Lsmp16UyRe3/WmAQVFLBhEep9+U/+kFyQ6AYM0jbvko8bXg7esO7ifIexlhp6wYX9xBcjfkDSqzndbDSMksd28yv7GsFy1ecmGOWu0z9MTrHnht6k+NSmrTT9PfeGjMybv0Rdsp6LTR4Rfd8fSH3y2oUtm8YPYHT97+j0M26ABBgRtwH3+a5zj3h+o2hTEY9GHz3Hke5/6weGBOWq6s+/uRt/73/5On/zxv3vxvp33x1uO3XvTXoX0FhTS4be78ea4/L96qWHJ5VuQ3h0Fy1ec2a5nxwt1hsKwchGjrJTT4NT96ITPyvaGQ3PQatUCZdfVihPjN/PJfZ0d+flxFcrHyNY3K7J9BiN/Qb1bNATnzH2tn1rD/o7Eyh190M/JbOhydC1Lf//ugDDrvcetc5vOnTWHwm3q5Nh+/nH3vnzdqcOuz68hXm5U5XbgfDH5jb/5Nzckvk68evu68Y4cPGzZsl0NOueT2V35knpv+jAC/uQ8eoOan0M3nIsBv8BueZVsYX4kAv8nv8kYbkFyLAL/R7/QoteSaRyLAb/ajW6ml1nQ8AvyGX06nlti8fWHwm345KtbSmrEZDH7rv93Msnqhjwh++9/zYWoJJdcgQLtA+ctSLZ05u8OgveCQyWXzXF8RtB+snN6kJTLnSBi0LxzwPLUk0rt7iqC9oRw4qxwmbgZBe8Qu5/5UvKmHiUF7xc5nfF+s6cdEBu0ZO502qzifHBYK2jsGu/830QLEj+0JQbvIlc6ZTM2VvndibwjaTcrWl32gmpN0wpmDIGhv2fdPD83Nbsa/D+sDQftMM+Cgy575zpPOev6K368GQXvPvtvuf9LFdzz17vtTpk2b9N7/H7/n6lMO2Kwr2hECAFZQOCDAIgAAsK8AnQEqXAPlAD51NpdJJLI/oiMSSyvwDollbvJUeKFyckThNz6OR3ogeSnHX82+gDRuNYvEv6LfErA/CD8Jf2A/laMQN//b/lVuFnX/7J+1n9n6hPfLw51Fte+bt4n+kf7z/E/ll9BfQh+pP917gH6kfsF1kP6b/u/UB/R/8b+7nu9f8T9nfcn+1PsAfzL/H//T2p/UF/u3/L///uAfyX/If+n1zP3C+Bj9uf3F/6/yEfyz++f/n90vgA9AD/oexV/APUn6u/4r+8/p1+I3m1/mvxd6Nz2Q/FPqbeg+NPZ57FeAQ6r8Ifp/QC9L8AbVH8R+wB/KPN7vMPov+m9gD+Qf2f1a/8X9r/Nf+gf6n2Av5N/cvS+9bv7bf/b3FP1b/9JQkRPAb+OVC1iG7L60B13aR5HRUiDg2JUQo8joqRBwbEqIUeR0VIgY2zVhhJfefoz0gJmRJ5g6AGLu4OhREEtSTNMu7SPI6KkQcGxJMf/6rYXoqRBwbEqIUQm+ACRZqS1XS67hycXf8HBn4iht/FCiyPg13aR5HRUiDg2JLDyWzVK2iIJbEqIQGUlyADHprgGeB7tvW7sXtEQS1SLu/+NXxqlbREEtiVEI/6C5mqVtEQS2JUOwXSGnPfrDq7v6JnDKhY8CWxKeXkP/Gr40RgfjBcRK/Ke9dyIPdW1gKS+KckMV9ByMzBB0LGhzFKEU4su5w0mVOQetxBc9j6W/iuRUoIhrBe3bToN7iSJ2OB0R18cpCftlPcRYyPslTtAf6KH5nWkWQMAp6vjZh/YwBtsoxdINL/L9txrg3CIghm6xU8rQcTyT0hQDX6Ri9SeeWIrQhZqfyAQEdJRsY1LVbvpBS+MPEvgNCPkWHKwZFJyPE8u5dRi44i9EDlaAnACY5nqMeXw3LZFHlrhYks1SVTKBNJJ7RIm2RN29wZ+WvSAMa02DlTWZeQ55TdaY33mfZMdTEH963t9hiYKLxox7jsTbQn1RjTa3D2EdeGWiBcnxCg+NAM8FRg0Lvu0mnlKNSnfvQ6bhBwEz9415Rs0LadswQokAGQr8nZfGisCDAKerAfYHCwPwXK1NS7JfI0jWUchA9haFHxAUBuIzLI/LoqvKSdjE34o9R356FRSzOBre9fv2rFClIa9V6dSbq0pSZjriiL7MQOQ8f6s6Gj36+B3PB6xEicElq1D8/7ZkLTPupTbP3J8J59TjeRa0NwByseI0OL1UXQkDVKJ4WWS8EqLBJB016lVKeAm8cFXuc6qh14eoNwkSm1hX0f9IoOjYn+zbNLurS9kyzyihs4DnoZtjaeIs4FeqXFe5oShumGSBSA9e8w9vVjYdUk1MQtPTvjvHA5cge/VWE2Or5Auie36+Iy53LjmsCs+L8ed8Ogjf4AEAhpLNUlUydexxmtzI+LihKLEWh/bL7DG48ms+jQkbFDyXo8BfYUMcW6jEKBiLho1w0GIcwLvlXH1YifqALsf+t4DDdhGRHvFSTg1hsCS3CfVtStN2ty3mWsilHQUKZLGliHVffP2+3MkoMZTVCUFqEpRwiJzGEJVJ08ouYaCJYLVbIx2GlQvBxKz97iHULz8Ep3qW9dRsMEpa7ncEwO1RWQcV8UL6QpQYqndourE4tdSykMB/4ubV73veqVViduYF9Gbe3enYHkeJuwBP20B+fZwNI6yQfo6rDjyj39rYUhcK+MLuek5/vWxRsMA4zAc8i3bN57+Y02WfC7V7ZX/co7QkZocqGHE/R23XqsTn0tF/4j4aEVPWlNfWSt8Jze7YfZAKoDwizGlev3x1fdAHJsptv5ViuBLYlRFEZnryg4N81Ig4NiVEKPI+VhFcBw1afc5z2qyNo7QEiDg2JUQo8joqRBwbEqIUeR0VIg4NiVEH4AD+XfegDZ9lnvSWZ6jwrXeXj5Nr9TAbECB2VAfIc2Dm+DJKtr78e2JkeSFtZy/c0jFxXnpbfoW6I3jsaXNczVBAIBBE8AdUGRIDk2qv3gbbaBSEYBEvoGxxzxbOcMdE2SgwCYMTSWck+0Ta2moqecg5rFLYghgMAMWDOuwDkyVzzz/yqJaGPuF3uq3viCXTWfVMVaY4BEemJZJPJIcEioAAAAAAAGa0HOD+Yi6FjO0ZeW5GiOUbeNRKan/gGOGFDoQ4NG2Xr9ZO9hlxRlHnEBHpEzPuTGZHP9MDIinSO7eRvDc9F9jZVopqqgx8Zu+MJGPzy8UZE1ZETwLYAVCUdFocirVm1aoi73wzELzpG/40rlQGbfY9xcJHZP4AAMNg6ptLadPP7cX9+GzaWeITjp/8yZErQ+cKXKsA/VUZ3qK/xQfdmho47oc79ey2UO8gLs/Z0PREezhNm7ux/Ez3NP4B9IrVmf6CI6l3C3HAai4Xb2lnfd75/DPJGJomJsVUxwDuTktunpUQ5wBTfkFFLju7BxDEBfN7HPR82IGIPzmlQz3//3291aT5WtquAgAAEBEeH/+B5WLmNVookvB5rImPXBKVg4AATrLidlNSXbh8s8iOmqj7TmERdxRrEp/us6rfYdxNLE3mJUl7iKnTujKXQcSokqWS3jXogIJkcbwSWfEakn3yH3c1p5CjBHV6tM6VRfVYWfD0uk9+i5okRHYVS9bEvcyylRIJpOzQtvc9FemzmLJ6spXyCaIXmoy55DW/5EfVxoiC/5L0iZSTcbn06egsi+ebi0P+A0iyMD9aPwIlw4YS/ESWgcY117VaP3VYMXvEG3jCPSB630EMM/mRWO3GKJv4b3gqTfgq3JzvfpeqBE2AKTu/IZi7ms0E/hFi02HL6vTcxSGWWSi6wexgECEtrKQqhL4f3GHwgz0nv8+O72OeRfed0vshMQwAOPcOAfzhSrkWHM9b9fdEITSa9LFFBSyVXc2AJIK+wgG2SdjAbAH2kitumiAeLhkgAADktgo9N7EEQNrXrs7sCO0YEw7/53ePQAAE34O06Dzr1QFLUYLiEHmrXWNY02IkSPM2aE/HY6Lhoy9r+Y8EHdqWSOn/DBd8MqQ3KGchirMxmUqpkyUzyECtWuGcvM3ojsHNbUVRF5763WZdrCvKIvmNHdMudYTEEM9EW2bdqxOsE7zjhw1USOZcVWrQIuTEonN6g6gZZlWkDphnbqBldN0Ih4dCEQ6y2QAYXAAAMHoDTkYcKgAABqh4jDjbnw8PSNGGNTeNvZ3EnwVmp/hG/MlEMLLBCidg/Fw8B6nnj5V+m2S2G43+OpOFIvuYEQAL8N6fXZieGMsxKcIkvxEGLUTLyIjtI3wLRznHQwjGEmojvN6asIcaF0QAm4fdikN4Qo7SAJoi4rlBk0QOaP0gxEGzn+MWwdWdivQS0BEWTsXY/fNzmn4mzdjKGh55H+xBNweZMH4nRRpQzmO7Yt5PytIEzp0p4w9w/yuMz4+6oOpBhAYjio0NdPTQr5b2ZuOkNk62xIALTeGyCbVMBjnlYO+IgeBzfrFnQX8++BFFnJmHXvd5MHcd8Co2BXJdIh08Ll4HIKPakI2/limXNh4WKwhZECo3l0x9bTfLJBEXzdqWph7YRG7JEX2O8iF3l9bXgejaCW8wvAxSx2DX2TSBzFjs2mRM9YT+5feFAvZErBEqnIhUEVZDmNgCvRuGBP/c2flQDTxqvw+zKNQJQviu4V5yAoRzqJiqqYcTQECBG6Ncn/DMbwRfP3Fwho6qlNegAl7fcYrTLS1OpQlZy+UVkZPbR9qTfKe1ju5SYaJ5K7DgQlQdt3fF4QRfNkiswvJBXFyIKbazCu0Yt9j4dAzJNQUMrkBNnnf6h4BznKdZOuL1VRkoJBhPsWPBrg+8JaeWq+GXueWw89V1b+v9Ei7nccOdQ5mJouVWmHxIvaVsim6+CIv0JGlGfiDMhU+KOQmeL3zhXNof5rJAMc88jvBeWAuPhjrW/OC9D+d++jCH4PGAyf5kqK1dugeKZ4OlbwRilHR1cfqIrEKTjhu7GkKxUykiPgo8yfomLFYIKCikLMK58Nbg66R9uWh5JAhg10S47XzIr7mKneif+jYYR1C98jtHSLgRC0fyMF23h9hAKvGkkZIb54AkTnmLoJts4aA58ew7uOqckHhvq8YctGWt049VABrfZFsnO3HE2NoQJVGkcST7relIUJYpInueR5Xr6Nk7qlfiMHioh8jFzq5zrzss89fqtwqb5k63HLDERc/1EzlgGxUMwxmbrgi34XXVCJNGyu+eO8tKKLlDgXn6eCmIZHWF+qi8rANspBqypWBLSUZXOyIArK0fW126xR+5GcSXo5s24ot9BbVvcjOrY7zNmAbzsuOfRDu17YH/SQipcC99zpmmyGbTgaUL0rzlRxPwxvYyAoGlJFOxUK0BtrHr7xlGjg7ZkasvmhZI0+K6pTDma3blJ/34UVrlhEp0ooDA7Lqo4GwxnqnPi2CdIP8Txghxv/+DEKRPo9OFIewpfDf013Ce+Mb3aqvB9KH6MPcAl+L4mS0ldqMVeeT5fNOp4fLE4WYK3eYbw3Wl9/1faS8CbnRQrHlKyXkDB90GW/Vbd3DqwPHsr22+tEcFyDGCq3ACmCV74t73CaQmrhGLCsAOKWIndh43uvxN5tgVS5wFe0C8uswHh+LfuBAYXwKSWNq7whQVgzKAJeAPBjFYkE7vSC5PIPUTk+OAr2OsIjJReFRDw9E/tios8UuU2R0Ik8qLmqJ3sHax6llUaSmElZXK7oCbfkB5Ptc7d4UOJ43nv8ndfl1xyE4Pthe5vcanYJ7++6d8KrnZ842SJAQwukIxIhem+vlaagvucjkqRHgVgIt0dL9qtz3CsHacFLP93eDy1bh1i3bK+yK9v++SIVqIMyvxPx8vZFD4EZfwN/Ctwcr1XBEga2C6TPuIrK0LzeA4ZxtVocX+qOND1UE0u5tnjhHGDZRvSXwXSHSP1LJwYiMOegaLEpqrx5ifYGXR/kwRlsMwbT/9QbHdc9m0fo32ISNKVfLFAdIwV18Mz61jz5zm5gWhZ0OxzLP54dmbO3Tl3TrRhMQncuxHKSQgu1vttUHnbcevY7s4dv/TUbysZ1d4qGVzvMiQQ42jkS9tjE+Im/u+rjHxXfQiA+XfW0ZXNk7ElqAgdXGnxyrkIAXIzHY9w0AC0PxReNawa/hxTe/SKmECfBwBGb0HxLNX0JsKQSCaLdS4ur9Rfi1r/cfCPbZoE2STi0fCdNvc3x70MWLvcvMtXlQ8ylupvi5lOffYNjXHEJ4klmbiR+HUscWQ5uKBe39j4+MW91A2ZFIG7Fg7Bx1Z299z9Edt6+i/+o7tRwGHG23j3zFBCTM9DQ47gk0pGOPX03QCF/f1QmhHM6bhJtdPSuyWIXr0Hb6MOgnhbgMWGuaFy3rVlPM1Q+5MLNPhJ2A2pyghQhK8mboeogKQ5s4NxL2YYNM3i4pxIZ2cemQu7sGJSpw42NbAHXnqer891xmwXuP6VqK/u9roK3Ug4XBqHjRjA6bIxT1aS8yYGtSgQsc1pIj2Li/gVl8QK8dVMRRJbxH/LUjsDMnduqvzBcRbrjviwgctrIvLY0GUXEMqNtzshQORAJqSjg6n7UQ6TDH9F7MZ/m6laddbctxqu8nfbjV9rgYs/+dFpJiDKSXNgQLxgD7Zj7eJqQ9b7qfk9z2fV1r7XlMJSZdr5oREGmmUaEaFamu33/qzUy9WUgng2WExXNgTR4AiH7ZMExD0bz6uZwq4ln6hKXYAqYp8uN70t/EJzmFsQBP7melj4kbIoZrnKKbQrqzwfFjvd7syKmSKFddj0xeCIR+rpzMLZIeubh0XTDS8xwuAQzf/dgX/+9NmgqbJox0nlmPSq5CFLk2VaxwI+6tas1XN4yrfCpHt/mrhWEAxglO4U5mW4qU+Okvo6wPCdLQcolW+prAAgh5249ioKQM9JH89+KAquMzmMLr7jrR141AmdwOhcjExEmYhbw5jtnKPBhczjCUeXLc+/PICvNq4Ew4tqOGljllwbZwbgWNyJWae7y4VQ8+Oqnx5NtNSfoImBBj3dI2mnhSdj3kopgLFqOX6B7LMAcWPzTszIROekN/i3Ua6sYA7v2tCCXmh3BmLLDpv0H0Q0Tult39LP6kqaPRnyO11nToWiDdIWjeLjAYMEPZrgnZp3qLJT83YMEJbWKpO0o307hydt9tH4lg6znXU8NUdBTZVVe6YuqC6fp3u9d0g1joqnAjfjSENzAa9ZdKK+Dh75/t//FHl1AFmjVANnwPNZgBL81lZRIH6DWavuEt3lzd/cD6hdUyMVJZRi48ZkhbJTzP33F9MlAHVTCakBWFbtsh5FIV2kzVeq+P1sY6FuxXgKsW5p/HvbW96nc2E8YizvyyuDAjyB3VhDD0c25Ng9Dehc+mYfPx78T32qrQhm0vunACHkSMdflhuF5r/BT3+n4b0jAEIB4LfdrvyZLRz0Jpuk1rGpqW4faoW1J8lPH+3293pV2mIEESqHlQP6FtEMVcY2dnw6FFJaKh0SuUrfEf2wBvkSZvBALi0qGmNfz0THTEeWUZfAcJhNLs0U8VclWGVMsdMLLDCcmZjqdjgWOTAL9XNDRLp9ccW3hS4FNtVzMX55dCrOGfMdSl48x4EWYvDBK97UkxsHmWiMyVNAySg3hhV/Z6C5BfhdZr3gC7H1pqXTfvB617vu39c3M6ZxgEsiA/a1h27n6bb8dIoa0mvaAbj8874mhlXx7nqQWF9nUgRPnZwpVDHvExTqLLzZn0qKFbaII4amGfcAjDgxAZMwBYaU4jBm9waUpOFruh9xttDXgqRQb5BonriapXZ3m84Z4g1WA7AasBCzY8OumwuGDcfJ2v4cU8X5JTruSzOZ/xzYkTgP2RJD2XhnTPmzOLCxYtCZoGFajfCtoIs6CQQauAxBkAaUYK8DEZiREj1I4R5PbUIrRYV5ak3QBlJKAAJI4vm6xXUu8O4JB843y4ILeoFGD5dRgadf7g/Y1H4e2F8ALSqiRDI52UpQnJTufw6Z7TPPSepipx82AEFyTPyr61EDkvB8fQ9eUGkYIPBVeXlFDfDDrmJHIF/Z96meNmVbnSqMHPHwyNjQVHl60CEC9q4zElEs7TxEFW05PBY3fvwF35rvAIz/7GuGzmVp53WNJPCZ8A+Nf4pkRScBHkyREtkLvFXVEBTMFq3r233+4T99g3pZWIB+OyIIqXkbk8+H6H0uxLxl3AMV8VjySpUtWdMQhdnBkm7ynmoRMEUWl05jAHw08Gy9I0sV9oT0/ioXvpPOHx/1HvU6eqB1TWIgf0/xCSh8Jb4xXK6DgoOckGmfx8GiSKV2pfnl7oqRmnykHnW+A1ksFnWARZOyNrlrhwdrVLhoB3LIJqmpK0Pm/zJWEAPz2iQ+U0+BM8Hpj9uwkZlWvPvr9bA45AZXclbkMoef5dMEA1Qc842gKvT0LMMpbCvYiQylDRV78knhYLxFEiwFdp8WU691b3BQucetMdW1k2bLZcwiC6RMYgZ8EjsnifKnqZ4wwaKGjE2y4M4RcTekqIQgd61zm2xC4GNQbMEbi5LII+FgAtnQ57Es4G6xYoN1sF8pX6khdm/4iEsL5rrbw5khAZVsDah6/JlrU1mCE+LbAhVv7gvQomo2btpqkhYsMA3Cssr3Z1L2dGyHvGzxH7/gBHoBwxMtAyQURrXVFLpFysRyr0+3zteOc+K0UA1CmwLuDKs3TzCF3BV/+XKsWNjnHh3FN2hf5Osh7egL0kH7+F3kJJx4pYv0X54fu7tMGmJOu+MBuwG/R2axFNT9p6A8BFoo4akf3VRCHhpiacSJLWPhkYcIer7wIWVAuTIJQSSdYZuWPW8hU7Yn0YCwSS/kg5XhMIyAOShiRgWbqkbfg0rJVrVlynmtDt51pT6ftWpTQoovBni+lPs8Hy8iEoD4zkOg2QGpxPDRqk8tREnWZgfLkQhIZvG1QCTHQTlIft2On6lgoIi8oRsWPku5QnVwcfes6zlAyRxGI4KN7p4Cg7kK7sCNjGo9zxe3ZSinKfUPcipCsM27JO0WfFyJ+wDsAE3PC/vbmttuD/Z27euwrr6DDWcMKWeBJ2psOOZWPG7+y8VeznypGaR1sTfbHmDUl3UtYaJBz4QB7Hh5N43YoayxUQfqNgaYFY57wTfL8YvX+aTjOmcqXkCzuFsCiRFbbl/Ck8RGPxC3+XlJvwjrK6c/wFajlgBohYYwlOSBPj3Ek2C6ktMj0eXvW/HA5q/yu7ttPS5V0Qdl9ap168yi2C55ZL3zY/3pQOdUbwsRAfvdyqPXvwbQKH3Vqh+xKUQ5iTE4GEJWdJz9sStLgmBKruSO0qU8cG5LZAuXHLiXPpxMKDzGeAzdJqfEhi6ruoyw6Lpvrf7FhuHAFkLmo2OoHHUasQb40PiK8xobLU1CkQvKqapvIu+BaTL/l0ohaaEsXKst2Qz4VIG9ADrXmi6EIe+01VGH5Q+Zi9tpKS/l7wHVJw2T4CVV/GZERAvSZANNA/AAH81Oi5j6gwKOnhOq8uyG95tZ6/xeX7Aj0HZaJhQdOYkrfSt/ctwBaNZj2DdEwVbBitT/ZQnXnbx8QiAPojChleTZLrGCOni/iaMJtHx86JU1+rYkbyFw3Q+vLqtL+2/nsnc8OaO2+k81u80lly7dzFAAELx6NG/voxjxL6hgZPXWDiuPGo+x2Zu6f0waNrG20l8nhFZoHR60wstjXc4Mwhr0MXpRf9fCsMwrUrwte5nSauoRYDOhw1P0Jzz8wDHNlx248IHSLWTp2aj9LFj/csL6zOHk5J63+uL8NdKZhkEMWjI8hq9rnI6UsIlnHnbXlPgYS/mxIv5QsCWnubyT/V0eU/YmWMg7pULfOmE1VBk9N2fXo47eqmuoj17HwlWnycSd64d/hoSDZo8R8GTkeixUCAYpHHLWPds/qwAHFP6yQ/6HFfdQYrWMBJrzDz3489yCXa9sA7Qt3YvNuQK02ioWDOjkabLoO5SoBxGJpWpw2HDiKghgsaNoUMKBbwAcHZVfhh+eBDewWNxUcZOuOs4bCd7qe+adyBK106/y+MZzJP9sWkb+EAU3N2LSE6o184DApgODcjwANLjBXuzhsQXzFj2ie9mFfq+gYhDVxxiw5YAtl0tS3dIzqq1ladraNdzO1ALgWtMZwKgr98d1KAB3lnfj3b2cbue0TGo/6YiDhtFVXMxD+Wh+7Z1Z5aqwoyibLxJ+xcjAf9B3BFuEmxAJio5KgABHy889amsDopJBQDk882/hYt0TEX7u3EjgoMwrUzI5kk1Z3+PP/Yy5W80pwOBzIUsPhvdSdxsG/1qPgCwSb5CdjxQtyRqm87YtZCj6rFE1HKz26GqqHkzViA6MBfdZaAUOxXYi3dMue8ecMXgiOjJy7OXw9a7hAajVvRWqmsw2jgF29MyV9O0kOWY0HC2XjEFHLnS1W+6AAnGjlBcWFoCEN7N9qV8vx/ZgNVHvUBmhXwGfk+TL/2PBqmPH6DAiJISbXbqxjNaOLLTzWhpKlFjvFIFZgjOD8Qultct5fSJnP5ePWStBFq2tN6Fvbcu8hr6iijsSMgbDy8dGEFKBNth4oqzdHkxjnWw89Dd9jWAcgcjs3lnA3X5FTNzTAoUhvcbpzE31Zic74JS82yrfyQu7kp/ALN2TBWpw66r4ZXTrLFLXmZjCACZROBXHrQd9j49qaD6kQSLNglWFPnB8lD8fLgJKS2fDEPwXHnE+NZE80ul5geKyHy10/57oGO5FqIbVHxCpLKlYg9urI0iZnnMa1NM0nWd5/7DNbLHUBHseo/jlGVJgoYfJhiUgBkA1i6xyXlZ4NpKCnfR+Q9ZNOtEjCZauHnLXw1afp7r7wx+7JbRD9ANWP0QIBlpcKT9EZbfoIQ4AO1UA9Dt2yS55B6etRZvwRgADRYVknOy0FJuVyYkGa+QbnBbUhKQYgImNhmDy8RL8+Moo4MPTnHLxJ2WTKCnM0ZK3WPJA1+fEs41mq0DiIXnI8hbWKnRl/nKT5eVTBWrqFWDFYMF7ZaP0ayaKvOhSqcqpt7g9eeV75PZMmsHarvIm5+FTRGbR+IhN6t7dWUu354JsVbq06Kd5AuNUQr14A5N/kxqcENi9d5ANZj6pjVTcTeLsA/z/75/sYHDnLTCrSsCASLIAWsI0BHrIV4VEOXKIJpXJFSGVgdRi71N0niA8t15qMTemH7s+zwScP17228kXFvUnG1a55ayWD8qXd2+gBUxyd4rGYYVRwvpRavXPx34GuRxgx5x3xr1Js/W+t9DYIJ3Zz1kApQBOd1tT2qWGUal0HBNBSycnO/3MaT0D1FmPnjdCuJrG3jrNssv3a3jRnlv5VvX3gMLJs8nSh9HSr/NKWXsO8D1qcvFtsnwK/Z5lE3Cw7Z4N+ygINUAbNsl6P8HCGvdwpXAEzr3puWcH2aW7Ir+ej01w6cpYBV0vSWYHWKlUlGipHywM5SqBgVLuIX60aIoPtfxLfO98EWIEreehq+E1YoXVKQC10CqvzMRC5hzpoeSzHlF6eK359BDGb2WTlG2w9/RQr9MBcziA4c4DlYxiSdlh7DNHBRz7TmpTrmr0AtFfII3a3lnWtkaGCxwPd58mpZFY2nBznxoVN+Nv8X4g0/t9uM76vuDEEXQ3Sgzkv9wxnnFjS7E9eRa2t5ywYZJMq226Z/G5GNT1XWaO5WxC9OU4IPbqX/regqJlt1oaWvL8o1nDxrNr3xQnlgbzowSJLUv4Sm/0jprDT1Ft9PSWj/aydc/3aG7bx0M8WTm4vKLUzt54obYq5Wt/d31WZpQ1XoJShMX8JBjynITV13zvh0L4dbjBGv7u2MSi6WksfLhrXN975O30rivAC04csQd7KJdskdypoIeVYL9HMy272dztfqf0KI8bEvbOqodKsGmlrGAR8fJ6Yn2fL0Rao0ImQmbraXeV3Wd+WAJAhDF+HBEzqCmTGGpd56zEp7B16N7Flux9vBBIcPpk1V5DMi/76mWg+K4B20PT7iL3IX9lOoEBKbzTVMIN/7BS5wDvw7PwShLahTWUczLfjmK/A8vbc8j9XQG1KrhJ5XDZytKwqdmx6lT8LyBrr6YBuBT0EQWGgVTNa6zZ4pNfyk153VgqrY0HrFZ2dpJ0ImzMY8IqySLVHBC5xlz7B7p1qtPNqoiWjXBb9bQaDzC+uYhhqTwrq5bBa+VkmmFnJAVQ45+JdA8JLZ2NVsmFdd/4OsFT72Sht/8qDMPF7O6KP+g5v+UAX/N3URqTZuyb51ZiKrEdABnp07pGV7kq8QcZDL/PoaFW3NpGq0xgUdhJatEPvi/mswHZamUgKDsKdBF7noNwVIJSGmGmZO/QSo3v8i9ljja1UeUY/IWNUw6gbcJ04YhGn9v2XUdY2yiuVJaspiuvER0uL6X2PerGreGThD4QM/FZf8z5LbhHP9E4DoPcjDPhB0XU6sFAf4NmuNOvy8eu2gluy5/elWaGMcgYnJ/s79Cz0ELiAtvjD6uqudpY3QvRHuTTwYg9eHOjM8J5cHMoQdzpxiSU9JXSwWT0M+cDCliI+LWxM0X1x2fMSiJXVTt4nY5Gcbi7a5AiBhhy+rbED4gF46Y9tITj7bEKIP07HkdykCmjD754nKOqcbXCZXwj00Hz7WQaVOi7a/xMbDJ6CdyYVwLYbUb5nlKoDz5aQ11e1PHr9nydV8iPADo7daLjbsQmbZLhkqK4wavWe7s2AAAAAAAAAAAAACVeE9zPoRHAcJzWYAS/Jv2VW1SCdbB09XkcX/QG9F+9W5s+ll4HbZqASEifvsDJ2p1QKweaMOV1s5ueBm5AcjBgBwJCCzFxL3fveO7/B1olUlsDTHuDzoK4gT1t/bzfbqLlY89UPhK6VTCRVoDx1wa1fnKfLd/+ze7k1q3pZZejqBS5PJVUo1u8IZokngRGCCEAAAAAAAAAAAAAEVYSUa6AAAARXhpZgAASUkqAAgAAAAGABIBAwABAAAAAQAAABoBBQABAAAAVgAAABsBBQABAAAAXgAAACgBAwABAAAAAgAAABMCAwABAAAAAQAAAGmHBAABAAAAZgAAAAAAAABIAAAAAQAAAEgAAAABAAAABgAAkAcABAAAADAyMTABkQcABAAAAAECAwAAoAcABAAAADAxMDABoAMAAQAAAP//AAACoAQAAQAAAFwDAAADoAQAAQAAAOUAAAAAAAAA;" vertex="1" parent="1">
          <mxGeometry x="750" y="497.75" width="225.33" height="60" as="geometry" />
        </mxCell>
      </root>
    </mxGraphModel>
  </diagram>
</mxfile>
